ISO-10303-21;
HEADER;
/* Generated by software containing ST-Developer
 * from STEP Tools, Inc. (www.steptools.com)
 */
/* OPTION: using custom renumber hook */

FILE_DESCRIPTION(
/* description */ ('STEP AP242 Edition 2',
'CAx-IF Rec.Pracs.---Representation and Presentation of Product Manufa
cturing Information (PMI)---4.0---2014-10-13',
'CAx-IF Rec.Pracs.---3D Tessellated Geometry---0.4---2014-09-14','2;1',
'CAx-IF Rec.Pracs.---User Defined Attributes---1.5---2016-08-15'),
/* implementation_level */ '2;1');

FILE_NAME(
/* name */ 'NACA9512_3deg_10pc',
/* time_stamp */ '2026-04-22T23:47:33Z',
/* author */ (''),
/* organization */ (''),
/* preprocessor_version */ 'ST-DEVELOPER v20',
/* originating_system */ 'ONSHAPE BY PTC INC, 1.213',
/* authorisation */ '  ');

FILE_SCHEMA (('AP242_MANAGED_MODEL_BASED_3D_ENGINEERING_MIM_LF { 1 0 10303 442 3 1 4 }'));
ENDSEC;

DATA;
#10=SHAPE_REPRESENTATION_RELATIONSHIP('','',#156,#11);
#11=ADVANCED_BREP_SHAPE_REPRESENTATION('',(#154),#757);
#12=(
BOUNDED_CURVE()
B_SPLINE_CURVE(2,(#518,#519,#520,#521,#522),.UNSPECIFIED.,.F.,.F.)
B_SPLINE_CURVE_WITH_KNOTS((3,2,3),(0.,0.5,1.),.UNSPECIFIED.)
CURVE()
GEOMETRIC_REPRESENTATION_ITEM()
RATIONAL_B_SPLINE_CURVE((1.,0.999145758387301,1.,0.999145758387301,1.))
REPRESENTATION_ITEM('')
);
#13=B_SPLINE_SURFACE_WITH_KNOTS('',3,3,((#250,#251,#252,#253),(#254,#255,
#256,#257),(#258,#259,#260,#261),(#262,#263,#264,#265),(#266,#267,#268,
#269),(#270,#271,#272,#273),(#274,#275,#276,#277),(#278,#279,#280,#281),
(#282,#283,#284,#285),(#286,#287,#288,#289),(#290,#291,#292,#293),(#294,
#295,#296,#297),(#298,#299,#300,#301),(#302,#303,#304,#305),(#306,#307,
#308,#309),(#310,#311,#312,#313),(#314,#315,#316,#317),(#318,#319,#320,
#321),(#322,#323,#324,#325),(#326,#327,#328,#329),(#330,#331,#332,#333),
(#334,#335,#336,#337),(#338,#339,#340,#341),(#342,#343,#344,#345),(#346,
#347,#348,#349),(#350,#351,#352,#353),(#354,#355,#356,#357),(#358,#359,
#360,#361),(#362,#363,#364,#365),(#366,#367,#368,#369),(#370,#371,#372,
#373),(#374,#375,#376,#377),(#378,#379,#380,#381),(#382,#383,#384,#385),
(#386,#387,#388,#389),(#390,#391,#392,#393),(#394,#395,#396,#397),(#398,
#399,#400,#401),(#402,#403,#404,#405),(#406,#407,#408,#409),(#410,#411,
#412,#413),(#414,#415,#416,#417),(#418,#419,#420,#421),(#422,#423,#424,
#425),(#426,#427,#428,#429),(#430,#431,#432,#433),(#434,#435,#436,#437),
(#438,#439,#440,#441),(#442,#443,#444,#445),(#446,#447,#448,#449),(#450,
#451,#452,#453),(#454,#455,#456,#457),(#458,#459,#460,#461),(#462,#463,
#464,#465),(#466,#467,#468,#469),(#470,#471,#472,#473),(#474,#475,#476,
#477),(#478,#479,#480,#481),(#482,#483,#484,#485),(#486,#487,#488,#489),
(#490,#491,#492,#493),(#494,#495,#496,#497),(#498,#499,#500,#501),(#502,
#503,#504,#505),(#506,#507,#508,#509),(#510,#511,#512,#513),(#514,#515,
#516,#517)),.UNSPECIFIED.,.F.,.F.,.F.,(4,2,2,2,2,2,2,2,2,2,2,2,2,2,2,2,
2,2,2,2,2,2,2,2,2,2,2,2,2,2,2,2,1,4),(4,4),(0.,0.03125,0.0625,0.09375,0.125,
0.15625,0.1875,0.21875,0.25,0.28125,0.3125,0.34375,0.375,0.40625,0.4375,
0.46875,0.5,0.53125,0.5625,0.59375,0.625,0.65625,0.6875,0.71875,0.75,0.78125,
0.8125,0.84375,0.875,0.90625,0.9375,0.96875,0.984375,1.),(0.,0.318541878678364),
 .UNSPECIFIED.);
#14=B_SPLINE_SURFACE_WITH_KNOTS('',3,3,((#524,#525,#526,#527),(#528,#529,
#530,#531),(#532,#533,#534,#535),(#536,#537,#538,#539),(#540,#541,#542,
#543),(#544,#545,#546,#547),(#548,#549,#550,#551),(#552,#553,#554,#555),
(#556,#557,#558,#559),(#560,#561,#562,#563),(#564,#565,#566,#567),(#568,
#569,#570,#571),(#572,#573,#574,#575),(#576,#577,#578,#579),(#580,#581,
#582,#583),(#584,#585,#586,#587),(#588,#589,#590,#591),(#592,#593,#594,
#595),(#596,#597,#598,#599),(#600,#601,#602,#603),(#604,#605,#606,#607),
(#608,#609,#610,#611),(#612,#613,#614,#615),(#616,#617,#618,#619),(#620,
#621,#622,#623),(#624,#625,#626,#627),(#628,#629,#630,#631),(#632,#633,
#634,#635),(#636,#637,#638,#639),(#640,#641,#642,#643),(#644,#645,#646,
#647),(#648,#649,#650,#651),(#652,#653,#654,#655),(#656,#657,#658,#659),
(#660,#661,#662,#663),(#664,#665,#666,#667),(#668,#669,#670,#671),(#672,
#673,#674,#675),(#676,#677,#678,#679),(#680,#681,#682,#683),(#684,#685,
#686,#687),(#688,#689,#690,#691),(#692,#693,#694,#695),(#696,#697,#698,
#699),(#700,#701,#702,#703),(#704,#705,#706,#707),(#708,#709,#710,#711),
(#712,#713,#714,#715),(#716,#717,#718,#719),(#720,#721,#722,#723),(#724,
#725,#726,#727),(#728,#729,#730,#731),(#732,#733,#734,#735),(#736,#737,
#738,#739),(#740,#741,#742,#743),(#744,#745,#746,#747),(#748,#749,#750,
#751),(#752,#753,#754,#755)),.UNSPECIFIED.,.F.,.F.,.F.,(4,2,2,1,1,1,1,1,
1,1,1,2,2,2,2,2,2,2,2,2,2,2,2,2,2,2,2,2,2,2,2,2,4),(4,4),(0.,0.03125,0.0625,
0.09375,0.125,0.15625,0.1875,0.21875,0.25,0.28125,0.3125,0.34375,0.375,
0.40625,0.4375,0.46875,0.5,0.53125,0.5625,0.59375,0.625,0.65625,0.6875,
0.71875,0.75,0.78125,0.8125,0.84375,0.875,0.90625,0.9375,0.96875,1.),(0.,
0.318541878771791),.UNSPECIFIED.);
#15=LINE('',#209,#28);
#16=LINE('',#212,#29);
#17=LINE('',#214,#30);
#18=LINE('',#216,#31);
#19=LINE('',#218,#32);
#20=LINE('',#220,#33);
#21=LINE('',#222,#34);
#22=LINE('',#240,#35);
#23=LINE('',#242,#36);
#24=LINE('',#244,#37);
#25=LINE('',#246,#38);
#26=LINE('',#247,#39);
#27=LINE('',#523,#40);
#28=VECTOR('',#168,1.);
#29=VECTOR('',#169,1.);
#30=VECTOR('',#170,1.);
#31=VECTOR('',#171,1.);
#32=VECTOR('',#174,1.);
#33=VECTOR('',#175,1.);
#34=VECTOR('',#176,1.);
#35=VECTOR('',#179,1.);
#36=VECTOR('',#180,1.);
#37=VECTOR('',#181,1.);
#38=VECTOR('',#184,1.);
#39=VECTOR('',#185,1.);
#40=VECTOR('',#190,1.);
#41=ORIENTED_EDGE('',*,*,#77,.T.);
#42=ORIENTED_EDGE('',*,*,#78,.T.);
#43=ORIENTED_EDGE('',*,*,#79,.F.);
#44=ORIENTED_EDGE('',*,*,#80,.F.);
#45=ORIENTED_EDGE('',*,*,#81,.T.);
#46=ORIENTED_EDGE('',*,*,#82,.T.);
#47=ORIENTED_EDGE('',*,*,#83,.T.);
#48=ORIENTED_EDGE('',*,*,#84,.F.);
#49=ORIENTED_EDGE('',*,*,#85,.F.);
#50=ORIENTED_EDGE('',*,*,#80,.T.);
#51=ORIENTED_EDGE('',*,*,#86,.F.);
#52=ORIENTED_EDGE('',*,*,#87,.F.);
#53=ORIENTED_EDGE('',*,*,#88,.T.);
#54=ORIENTED_EDGE('',*,*,#89,.F.);
#55=ORIENTED_EDGE('',*,*,#90,.F.);
#56=ORIENTED_EDGE('',*,*,#84,.T.);
#57=ORIENTED_EDGE('',*,*,#91,.F.);
#58=ORIENTED_EDGE('',*,*,#82,.F.);
#59=ORIENTED_EDGE('',*,*,#92,.T.);
#60=ORIENTED_EDGE('',*,*,#89,.T.);
#61=ORIENTED_EDGE('',*,*,#81,.F.);
#62=ORIENTED_EDGE('',*,*,#85,.T.);
#63=ORIENTED_EDGE('',*,*,#90,.T.);
#64=ORIENTED_EDGE('',*,*,#92,.F.);
#65=ORIENTED_EDGE('',*,*,#79,.T.);
#66=ORIENTED_EDGE('',*,*,#91,.T.);
#67=ORIENTED_EDGE('',*,*,#88,.F.);
#68=ORIENTED_EDGE('',*,*,#83,.F.);
#69=ORIENTED_EDGE('',*,*,#86,.T.);
#70=ORIENTED_EDGE('',*,*,#93,.F.);
#71=ORIENTED_EDGE('',*,*,#78,.F.);
#72=ORIENTED_EDGE('',*,*,#94,.T.);
#73=ORIENTED_EDGE('',*,*,#94,.F.);
#74=ORIENTED_EDGE('',*,*,#77,.F.);
#75=ORIENTED_EDGE('',*,*,#93,.T.);
#76=ORIENTED_EDGE('',*,*,#87,.T.);
#77=EDGE_CURVE('',#95,#96,#107,.T.);
#78=EDGE_CURVE('',#96,#95,#108,.T.);
#79=EDGE_CURVE('',#97,#98,#15,.T.);
#80=EDGE_CURVE('',#99,#97,#16,.T.);
#81=EDGE_CURVE('',#99,#100,#17,.T.);
#82=EDGE_CURVE('',#100,#98,#18,.T.);
#83=EDGE_CURVE('',#97,#101,#19,.T.);
#84=EDGE_CURVE('',#102,#101,#20,.T.);
#85=EDGE_CURVE('',#99,#102,#21,.T.);
#86=EDGE_CURVE('',#103,#104,#109,.T.);
#87=EDGE_CURVE('',#104,#103,#110,.T.);
#88=EDGE_CURVE('',#101,#105,#22,.T.);
#89=EDGE_CURVE('',#106,#105,#23,.T.);
#90=EDGE_CURVE('',#102,#106,#24,.T.);
#91=EDGE_CURVE('',#98,#105,#25,.T.);
#92=EDGE_CURVE('',#100,#106,#26,.T.);
#93=EDGE_CURVE('',#95,#104,#12,.T.);
#94=EDGE_CURVE('',#96,#103,#27,.T.);
#95=VERTEX_POINT('',#200);
#96=VERTEX_POINT('',#201);
#97=VERTEX_POINT('',#210);
#98=VERTEX_POINT('',#211);
#99=VERTEX_POINT('',#213);
#100=VERTEX_POINT('',#215);
#101=VERTEX_POINT('',#219);
#102=VERTEX_POINT('',#221);
#103=VERTEX_POINT('',#231);
#104=VERTEX_POINT('',#232);
#105=VERTEX_POINT('',#241);
#106=VERTEX_POINT('',#243);
#107=B_SPLINE_CURVE_WITH_KNOTS('',6,(#193,#194,#195,#196,#197,#198,#199),
 .UNSPECIFIED.,.F.,.F.,(7,7),(0.,1.),.PIECEWISE_BEZIER_KNOTS.);
#108=B_SPLINE_CURVE_WITH_KNOTS('',6,(#202,#203,#204,#205,#206,#207,#208),
 .UNSPECIFIED.,.F.,.F.,(7,7),(0.,1.),.PIECEWISE_BEZIER_KNOTS.);
#109=B_SPLINE_CURVE_WITH_KNOTS('',6,(#224,#225,#226,#227,#228,#229,#230),
 .UNSPECIFIED.,.F.,.F.,(7,7),(0.,1.),.PIECEWISE_BEZIER_KNOTS.);
#110=B_SPLINE_CURVE_WITH_KNOTS('',6,(#233,#234,#235,#236,#237,#238,#239),
 .UNSPECIFIED.,.F.,.F.,(7,7),(0.,1.),.PIECEWISE_BEZIER_KNOTS.);
#111=EDGE_LOOP('',(#41,#42));
#112=EDGE_LOOP('',(#43,#44,#45,#46));
#113=EDGE_LOOP('',(#47,#48,#49,#50));
#114=EDGE_LOOP('',(#51,#52));
#115=EDGE_LOOP('',(#53,#54,#55,#56));
#116=EDGE_LOOP('',(#57,#58,#59,#60));
#117=EDGE_LOOP('',(#61,#62,#63,#64));
#118=EDGE_LOOP('',(#65,#66,#67,#68));
#119=EDGE_LOOP('',(#69,#70,#71,#72));
#120=EDGE_LOOP('',(#73,#74,#75,#76));
#121=FACE_BOUND('',#111,.T.);
#122=FACE_BOUND('',#112,.T.);
#123=FACE_BOUND('',#113,.T.);
#124=FACE_BOUND('',#114,.T.);
#125=FACE_BOUND('',#115,.T.);
#126=FACE_BOUND('',#116,.T.);
#127=FACE_BOUND('',#117,.T.);
#128=FACE_BOUND('',#118,.T.);
#129=FACE_BOUND('',#119,.T.);
#130=FACE_BOUND('',#120,.T.);
#131=PLANE('',#158);
#132=PLANE('',#159);
#133=PLANE('',#160);
#134=PLANE('',#161);
#135=PLANE('',#162);
#136=PLANE('',#163);
#137=ADVANCED_FACE('',(#121,#122),#131,.T.);
#138=ADVANCED_FACE('',(#123),#132,.F.);
#139=ADVANCED_FACE('',(#124,#125),#133,.F.);
#140=ADVANCED_FACE('',(#126),#134,.T.);
#141=ADVANCED_FACE('',(#127),#135,.T.);
#142=ADVANCED_FACE('',(#128),#136,.F.);
#143=ADVANCED_FACE('',(#129),#13,.F.);
#144=ADVANCED_FACE('',(#130),#14,.F.);
#145=CLOSED_SHELL('',(#137,#138,#139,#140,#141,#142,#143,#144));
#146=STYLED_ITEM('',(#147),#154);
#147=PRESENTATION_STYLE_ASSIGNMENT((#148));
#148=SURFACE_STYLE_USAGE(.BOTH.,#149);
#149=SURFACE_SIDE_STYLE('',(#150));
#150=SURFACE_STYLE_FILL_AREA(#151);
#151=FILL_AREA_STYLE('',(#152));
#152=FILL_AREA_STYLE_COLOUR('',#153);
#153=COLOUR_RGB('',0.647058823529412,0.647058823529412,0.647058823529412);
#154=MANIFOLD_SOLID_BREP('Part 1',#145);
#155=SHAPE_DEFINITION_REPRESENTATION(#762,#156);
#156=SHAPE_REPRESENTATION('Part 1',(#157),#757);
#157=AXIS2_PLACEMENT_3D('',#191,#164,#165);
#158=AXIS2_PLACEMENT_3D('',#192,#166,#167);
#159=AXIS2_PLACEMENT_3D('',#217,#172,#173);
#160=AXIS2_PLACEMENT_3D('',#223,#177,#178);
#161=AXIS2_PLACEMENT_3D('',#245,#182,#183);
#162=AXIS2_PLACEMENT_3D('',#248,#186,#187);
#163=AXIS2_PLACEMENT_3D('',#249,#188,#189);
#164=DIRECTION('',(0.,0.,1.));
#165=DIRECTION('',(1.,0.,0.));
#166=DIRECTION('',(0.,1.,6.12323399573677E-17));
#167=DIRECTION('',(0.,-6.12323399573677E-17,1.));
#168=DIRECTION('',(0.,6.12323399573677E-17,-1.));
#169=DIRECTION('',(-1.,0.,0.));
#170=DIRECTION('',(0.,6.12323399573677E-17,-1.));
#171=DIRECTION('',(-1.,0.,0.));
#172=DIRECTION('',(0.,0.,-1.));
#173=DIRECTION('',(-1.,0.,0.));
#174=DIRECTION('',(0.,-1.,0.));
#175=DIRECTION('',(-1.,0.,0.));
#176=DIRECTION('',(0.,-1.,0.));
#177=DIRECTION('',(0.,1.,5.55111512312578E-17));
#178=DIRECTION('',(0.,-5.55111512312578E-17,1.));
#179=DIRECTION('',(0.,5.55111512312578E-17,-1.));
#180=DIRECTION('',(-1.,0.,0.));
#181=DIRECTION('',(0.,5.55111512312578E-17,-1.));
#182=DIRECTION('',(0.,0.,-1.));
#183=DIRECTION('',(-1.,0.,0.));
#184=DIRECTION('',(0.,-1.,0.));
#185=DIRECTION('',(0.,-1.,0.));
#186=DIRECTION('',(1.,0.,0.));
#187=DIRECTION('',(0.,1.,0.));
#188=DIRECTION('',(1.,0.,0.));
#189=DIRECTION('',(0.,1.,0.));
#190=DIRECTION('',(0.,-1.,0.));
#191=CARTESIAN_POINT('',(0.,0.,0.));
#192=CARTESIAN_POINT('',(2.5,-2.81948582117894E-17,-0.25));
#193=CARTESIAN_POINT('',(1.,0.,1.23693584918215E-17));
#194=CARTESIAN_POINT('',(0.663194444444445,0.,0.171330861277344));
#195=CARTESIAN_POINT('',(0.420138888888889,0.,0.180029593495402));
#196=CARTESIAN_POINT('',(0.227256944444444,0.,0.140338196039816));
#197=CARTESIAN_POINT('',(0.0814814814814817,0.,0.110030221225143));
#198=CARTESIAN_POINT('',(2.22044604925032E-16,0.,0.0322881324231292));
#199=CARTESIAN_POINT('',(2.22044604925032E-16,0.,0.));
#200=CARTESIAN_POINT('',(1.,0.,0.));
#201=CARTESIAN_POINT('',(1.11022302462516E-16,0.,0.));
#202=CARTESIAN_POINT('',(2.22044604925032E-16,0.,0.));
#203=CARTESIAN_POINT('',(2.22044604925032E-16,0.,-0.0227782317884053));
#204=CARTESIAN_POINT('',(0.0797819177591515,0.,-0.0369293309084337));
#205=CARTESIAN_POINT('',(0.223233758445492,0.,0.0073427730751811));
#206=CARTESIAN_POINT('',(0.414243527227056,0.,0.0444064549564461));
#207=CARTESIAN_POINT('',(0.640132372894662,0.,0.076883337476325));
#208=CARTESIAN_POINT('',(1.,0.,0.));
#209=CARTESIAN_POINT('',(-0.5,-2.81948582117894E-17,-0.25));
#210=CARTESIAN_POINT('',(-0.5,-7.63278329429795E-17,0.5));
#211=CARTESIAN_POINT('',(-0.5,-1.38777878078145E-17,-0.5));
#212=CARTESIAN_POINT('',(2.5,-7.63278329429795E-17,0.5));
#213=CARTESIAN_POINT('',(2.5,-7.63278329429795E-17,0.5));
#214=CARTESIAN_POINT('',(2.5,-2.81948582117894E-17,-0.25));
#215=CARTESIAN_POINT('',(2.5,-1.38777878078145E-17,-0.5));
#216=CARTESIAN_POINT('',(2.5,-1.38777878078145E-17,-0.5));
#217=CARTESIAN_POINT('',(2.5,-0.05,0.5));
#218=CARTESIAN_POINT('',(-0.5,-0.05,0.5));
#219=CARTESIAN_POINT('',(-0.5,-0.1,0.5));
#220=CARTESIAN_POINT('',(2.5,-0.1,0.5));
#221=CARTESIAN_POINT('',(2.5,-0.1,0.5));
#222=CARTESIAN_POINT('',(2.5,-0.05,0.5));
#223=CARTESIAN_POINT('',(2.5,-0.1,0.));
#224=CARTESIAN_POINT('',(2.21740300511047E-16,-0.1,-1.16209167273382E-17));
#225=CARTESIAN_POINT('',(-0.00119212054216939,-0.1,-0.022747015013387));
#226=CARTESIAN_POINT('',(0.0777398475671441,-0.1,-0.0410541835007079));
#227=CARTESIAN_POINT('',(0.223312115388301,-0.1,-0.00435044215407461));
#228=CARTESIAN_POINT('',(0.415999875153354,-0.1,0.0226657663383778));
#229=CARTESIAN_POINT('',(0.64327885671111,-0.1,0.0432760316768545));
#230=CARTESIAN_POINT('',(0.998629534754574,-0.1,-0.0523359562429438));
#231=CARTESIAN_POINT('',(2.26343029124216E-16,-0.100000292039796,-1.00374146798245E-17));
#232=CARTESIAN_POINT('',(0.998629495186001,-0.100000294699993,-0.0523338659434401));
#233=CARTESIAN_POINT('',(0.998629534754574,-0.1,-0.0523359562429438));
#234=CARTESIAN_POINT('',(0.671252323966252,-0.1,0.136387142861487));
#235=CARTESIAN_POINT('',(0.428985124071026,-0.1,0.157794498689521));
#236=CARTESIAN_POINT('',(0.234290230387455,-0.1,0.128252157919188));
#237=CARTESIAN_POINT('',(0.087128350786406,-0.1,0.105615017381583));
#238=CARTESIAN_POINT('',(0.00168983028566348,-0.1,0.0322438826598036));
#239=CARTESIAN_POINT('',(2.21740300511047E-16,-0.1,-1.16209167273382E-17));
#240=CARTESIAN_POINT('',(-0.5,-0.1,0.));
#241=CARTESIAN_POINT('',(-0.5,-0.1,-0.5));
#242=CARTESIAN_POINT('',(2.5,-0.1,-0.5));
#243=CARTESIAN_POINT('',(2.5,-0.1,-0.5));
#244=CARTESIAN_POINT('',(2.5,-0.1,0.));
#245=CARTESIAN_POINT('',(2.5,-0.05,-0.5));
#246=CARTESIAN_POINT('',(-0.5,-0.05,-0.5));
#247=CARTESIAN_POINT('',(2.5,-0.05,-0.5));
#248=CARTESIAN_POINT('',(2.5,-0.05,0.));
#249=CARTESIAN_POINT('',(-0.5,-0.05,0.));
#250=CARTESIAN_POINT('',(2.22044604925032E-16,0.,0.));
#251=CARTESIAN_POINT('',(2.22044604925031E-16,-0.033502080731601,-3.89724843021117E-18));
#252=CARTESIAN_POINT('',(2.21941915118416E-16,-0.0670589083966504,-7.79661820991776E-18));
#253=CARTESIAN_POINT('',(2.21736667349092E-16,-0.100600725928017,-1.16900000538426E-17));
#254=CARTESIAN_POINT('',(2.22044604925032E-16,0.,-0.00142363948677533));
#255=CARTESIAN_POINT('',(-2.49872171262425E-5,-0.033502080731601,-0.00142363948677534));
#256=CARTESIAN_POINT('',(-4.99880352897958E-5,-0.0670589083966504,-0.00142298109084793));
#257=CARTESIAN_POINT('',(-7.49504617895389E-5,-0.100600725928017,-0.00142166514431061));
#258=CARTESIAN_POINT('',(0.000389559638338801,0.,-0.00280462546199804));
#259=CARTESIAN_POINT('',(0.000340333843445958,-0.033502080731601,-0.00281146287509124));
#260=CARTESIAN_POINT('',(0.00029090109286171,-0.0670589083966504,-0.00281700694419946));
#261=CARTESIAN_POINT('',(0.000241364045549735,-0.100600725928017,-0.00282124510753375));
#262=CARTESIAN_POINT('',(0.00192813469427258,0.,-0.00542691460520758));
#263=CARTESIAN_POINT('',(0.00183288340711262,-0.033502080731601,-0.00546075654391637));
#264=CARTESIAN_POINT('',(0.00173668856106045,-0.0670589083966504,-0.00549210709777952));
#265=CARTESIAN_POINT('',(0.00163974949719682,-0.100600725928017,-0.00552089907179055));
#266=CARTESIAN_POINT('',(0.00307714851168525,0.,-0.00666825888893257));
#267=CARTESIAN_POINT('',(0.00296010958837563,-0.033502080731601,-0.0067222679120779));
#268=CARTESIAN_POINT('',(0.00284158385797457,-0.0670589083966504,-0.00677322243854429));
#269=CARTESIAN_POINT('',(0.00272181667891772,-0.100600725928017,-0.00682101404729699));
#270=CARTESIAN_POINT('',(0.00611500307191262,0.,-0.00896891247204745));
#271=CARTESIAN_POINT('',(0.00595758389001361,-0.033502080731601,-0.00907624084478947));
#272=CARTESIAN_POINT('',(0.00579725099318298,-0.0670589083966504,-0.00917947975168327));
#273=CARTESIAN_POINT('',(0.00563433556575995,-0.100600725928017,-0.00927841119235031));
#274=CARTESIAN_POINT('',(0.00800384143288748,0.,-0.0100282602099641));
#275=CARTESIAN_POINT('',(0.00782782895388928,-0.033502080731601,-0.010168740806061));
#276=CARTESIAN_POINT('',(0.00764801910105287,-0.0670589083966504,-0.0103046600611742));
#277=CARTESIAN_POINT('',(0.00746478286866843,-0.100600725928017,-0.0104357316217194));
#278=CARTESIAN_POINT('',(0.0125018122373369,0.,-0.011933311231522));
#279=CARTESIAN_POINT('',(0.0122923629760951,-0.033502080731601,-0.0121527386214971));
#280=CARTESIAN_POINT('',(0.0120770179471755,-0.0670589083966504,-0.0123667666066546));
#281=CARTESIAN_POINT('',(0.0118562203899573,-0.100600725928017,-0.0125749456943009));
#282=CARTESIAN_POINT('',(0.0151109415173142,0.,-0.0127790502764786));
#283=CARTESIAN_POINT('',(0.0148866481432581,-0.033502080731601,-0.0130442721814524));
#284=CARTESIAN_POINT('',(0.0146552442677125,-0.0670589083966504,-0.0133037284763412));
#285=CARTESIAN_POINT('',(0.0144172055664989,-0.100600725928017,-0.013556874882685));
#286=CARTESIAN_POINT('',(0.0210301405078736,0.,-0.0142349041517049));
#287=CARTESIAN_POINT('',(0.0207802945011302,-0.033502080731601,-0.0146040177453863));
#288=CARTESIAN_POINT('',(0.0205205866097924,-0.0670589083966504,-0.0149667489850489));
#289=CARTESIAN_POINT('',(0.0202515491935388,-0.100600725928017,-0.0153223382817649));
#290=CARTESIAN_POINT('',(0.0243402062733011,0.,-0.0148450520660785));
#291=CARTESIAN_POINT('',(0.0240796511660043,-0.033502080731601,-0.0152722627642248));
#292=CARTESIAN_POINT('',(0.0238076975263281,-0.0670589083966504,-0.0156928405543477));
#293=CARTESIAN_POINT('',(0.0235249019625725,-0.100600725928017,-0.0161059053229817));
#294=CARTESIAN_POINT('',(0.0316422104036476,0.,-0.0158163409479681));
#295=CARTESIAN_POINT('',(0.0313646075771706,-0.033502080731601,-0.0163717138419219));
#296=CARTESIAN_POINT('',(0.0310722199534894,-0.0670589083966504,-0.0169200743934377));
#297=CARTESIAN_POINT('',(0.0307656439490467,-0.100600725928017,-0.0174602763894702));
#298=CARTESIAN_POINT('',(0.0356341440417548,0.,-0.0161775123223766));
#299=CARTESIAN_POINT('',(0.0353502020629601,-0.033502080731601,-0.0168029502247095));
#300=CARTESIAN_POINT('',(0.0350496256718166,-0.0670589083966504,-0.0174212468900871));
#301=CARTESIAN_POINT('',(0.0347330268453966,-0.100600725928017,-0.0180311105306124));
#302=CARTESIAN_POINT('',(0.0442812319866232,0.,-0.0166451100554614));
#303=CARTESIAN_POINT('',(0.0439890828976766,-0.033502080731601,-0.0174223185893321));
#304=CARTESIAN_POINT('',(0.0436762958776858,-0.0670589083966504,-0.0181922522463189));
#305=CARTESIAN_POINT('',(0.0433435051152478,-0.100600725928017,-0.0189533037160962));
#306=CARTESIAN_POINT('',(0.0489363807849152,0.,-0.0167515641438187));
#307=CARTESIAN_POINT('',(0.0486423632514331,-0.033502080731601,-0.0176104782041653));
#308=CARTESIAN_POINT('',(0.0483255538856382,-0.0670589083966504,-0.0184621126293401));
#309=CARTESIAN_POINT('',(0.0479865935280326,-0.100600725928017,-0.0193046901616577));
#310=CARTESIAN_POINT('',(0.0588918165488048,0.,-0.0167107618506203));
#311=CARTESIAN_POINT('',(0.0585985151627525,-0.033502080731601,-0.0177444102010254));
#312=CARTESIAN_POINT('',(0.058277818206243,-0.0670589083966504,-0.0187708928975834));
#313=CARTESIAN_POINT('',(0.0579303709408997,-0.100600725928017,-0.0197880690761696));
#314=CARTESIAN_POINT('',(0.064192097224276,0.,-0.0165635305215343));
#315=CARTESIAN_POINT('',(0.0639013799904769,-0.033502080731601,-0.0176902075251198));
#316=CARTESIAN_POINT('',(0.0635808173520146,-0.0670589083966504,-0.0188098376028249));
#317=CARTESIAN_POINT('',(0.0632310523406396,-0.100600725928017,-0.0199200862316894));
#318=CARTESIAN_POINT('',(0.0754204606495968,0.,-0.016022372821703));
#319=CARTESIAN_POINT('',(0.0751392416244882,-0.033502080731601,-0.0173461260917799));
#320=CARTESIAN_POINT('',(0.0748229895411611,-0.0670589083966504,-0.018663189979735));
#321=CARTESIAN_POINT('',(0.0744723343348496,-0.100600725928017,-0.0199708195705133));
#322=CARTESIAN_POINT('',(0.0813485363276628,0.,-0.015628468826216));
#323=CARTESIAN_POINT('',(0.0810742309662687,-0.033502080731601,-0.0170562695854823));
#324=CARTESIAN_POINT('',(0.080762154730364,-0.0670589083966504,-0.0184776197680033));
#325=CARTESIAN_POINT('',(0.0804129266893514,-0.100600725928017,-0.0198895577257362));
#326=CARTESIAN_POINT('',(0.0938161005023199,0.,-0.0146062506883544));
#327=CARTESIAN_POINT('',(0.0935597367524072,-0.033502080731601,-0.0162528777277038));
#328=CARTESIAN_POINT('',(0.0932598459724919,-0.0670589083966504,-0.0178936460508662));
#329=CARTESIAN_POINT('',(0.092917017302467,-0.100600725928017,-0.0195251380752452));
#330=CARTESIAN_POINT('',(0.10035558114547,0.,-0.0139779562440266));
#331=CARTESIAN_POINT('',(0.100110244997591,-0.033502080731601,-0.0157393619364287));
#332=CARTESIAN_POINT('',(0.0998183634839535,-0.0670589083966504,-0.0174952619586409));
#333=CARTESIAN_POINT('',(0.0994805066814865,-0.100600725928017,-0.0192419995267996));
#334=CARTESIAN_POINT('',(0.114030736709887,0.,-0.0125038804701994));
#335=CARTESIAN_POINT('',(0.11381127301902,-0.033502080731601,-0.0145053076599682));
#336=CARTESIAN_POINT('',(0.113538953644469,-0.0670589083966504,-0.0165020415493886));
#337=CARTESIAN_POINT('',(0.113214302948409,-0.100600725928017,-0.018489925049329));
#338=CARTESIAN_POINT('',(0.121166402996056,0.,-0.0116581161615352));
#339=CARTESIAN_POINT('',(0.120961783861422,-0.033502080731601,-0.0137847860440579));
#340=CARTESIAN_POINT('',(0.120701017064769,-0.0670589083966504,-0.0159072219421224));
#341=CARTESIAN_POINT('',(0.120384600317091,-0.100600725928017,-0.0180210056629217));
#342=CARTESIAN_POINT('',(0.136020129349636,0.,-0.00977011150446392));
#343=CARTESIAN_POINT('',(0.135848647805482,-0.033502080731601,-0.012157488742312));
#344=CARTESIAN_POINT('',(0.135614167177857,-0.0670589083966504,-0.0145416470565187));
#345=CARTESIAN_POINT('',(0.135317125045718,-0.100600725928017,-0.016917624660676));
#346=CARTESIAN_POINT('',(0.143738180000293,0.,-0.0087278854996807));
#347=CARTESIAN_POINT('',(0.143584991238629,-0.033502080731601,-0.0112507272348208));
#348=CARTESIAN_POINT('',(0.143365243954599,-0.0670589083966504,-0.0137709057845224));
#349=CARTESIAN_POINT('',(0.143079342246816,-0.100600725928017,-0.0162831768728047));
#350=CARTESIAN_POINT('',(0.159744563407323,0.,-0.00647158541262481));
#351=CARTESIAN_POINT('',(0.159630976427361,-0.033502080731601,-0.00927536553231812));
#352=CARTESIAN_POINT('',(0.159443449948512,-0.0670589083966504,-0.0120776788665174));
#353=CARTESIAN_POINT('',(0.159182315171256,-0.100600725928017,-0.0148726952307987));
#354=CARTESIAN_POINT('',(0.168032885965283,0.,-0.0052575229967646));
#355=CARTESIAN_POINT('',(0.167940607779768,-0.033502080731601,-0.00820677682472026));
#356=CARTESIAN_POINT('',(0.167770568562345,-0.0670589083966504,-0.0111552045234303));
#357=CARTESIAN_POINT('',(0.167523060096126,-0.100600725928017,-0.0140966724899805));
#358=CARTESIAN_POINT('',(0.185169684560268,0.,-0.00268540501608734));
#359=CARTESIAN_POINT('',(0.185122551280506,-0.033502080731601,-0.00593543787646173));
#360=CARTESIAN_POINT('',(0.184989756222169,-0.0670589083966504,-0.00918599786468579));
#361=CARTESIAN_POINT('',(0.184771507407468,-0.100600725928017,-0.0124303239980146));
#362=CARTESIAN_POINT('',(0.194018149617222,0.,-0.00132735844047133));
#363=CARTESIAN_POINT('',(0.193994852290993,-0.033502080731601,-0.00473269643228379));
#364=CARTESIAN_POINT('',(0.193881813977533,-0.0670589083966504,-0.00813927414853054));
#365=CARTESIAN_POINT('',(0.193679198355842,-0.100600725928017,-0.0115400066455328));
#366=CARTESIAN_POINT('',(0.212267405309667,0.,0.00150195579910851));
#367=CARTESIAN_POINT('',(0.212293767107029,-0.033502080731601,-0.00222368667893056));
#368=CARTESIAN_POINT('',(0.212221975145437,-0.0670589083966504,-0.00595205171311507));
#369=CARTESIAN_POINT('',(0.21205210061048,-0.100600725928017,-0.00967538619920274));
#370=CARTESIAN_POINT('',(0.22166818418343,0.,0.00297321715108272));
#371=CARTESIAN_POINT('',(0.221720369040066,-0.033502080731601,-0.000917424475307214));
#372=CARTESIAN_POINT('',(0.221670066580058,-0.0670589083966504,-0.00481155888993759));
#373=CARTESIAN_POINT('',(0.221517299839019,-0.100600725928017,-0.00870108878936982));
#374=CARTESIAN_POINT('',(0.241016881462056,0.,0.00599550126855359));
#375=CARTESIAN_POINT('',(0.24112211238138,-0.033502080731601,0.00176525814578317));
#376=CARTESIAN_POINT('',(0.241115936593015,-0.0670589083966504,-0.00247006034419145));
#377=CARTESIAN_POINT('',(0.240998278244531,-0.100600725928017,-0.00670164847011028));
#378=CARTESIAN_POINT('',(0.250964787323534,0.,0.00754652039927205));
#379=CARTESIAN_POINT('',(0.251097241182476,-0.033502080731601,0.00314167514862906));
#380=CARTESIAN_POINT('',(0.251113702506139,-0.0670589083966504,-0.00126905781428604));
#381=CARTESIAN_POINT('',(0.251014044704153,-0.100600725928017,-0.00567650853004845));
#382=CARTESIAN_POINT('',(0.271405558959933,0.,0.0106923219867069));
#383=CARTESIAN_POINT('',(0.271593226816542,-0.033502080731601,0.00592870753651881));
#384=CARTESIAN_POINT('',(0.271655478871127,-0.0670589083966504,0.00115755523814387));
#385=CARTESIAN_POINT('',(0.271592085782738,-0.100600725928017,-0.0036112165642111));
#386=CARTESIAN_POINT('',(0.281898411409812,0.,0.0122871034858565));
#387=CARTESIAN_POINT('',(0.282114070307663,-0.033502080731601,0.00733932219787232));
#388=CARTESIAN_POINT('',(0.282199475970487,-0.0670589083966504,0.00238316527142462));
#389=CARTESIAN_POINT('',(0.282154347044725,-0.100600725928017,-0.00257106479314981));
#390=CARTESIAN_POINT('',(0.303430291061543,0.,0.0154819621951045));
#391=CARTESIAN_POINT('',(0.303702024990326,-0.033502080731601,0.0101562609653116));
#392=CARTESIAN_POINT('',(0.30383357827717,-0.0670589083966504,0.00482050084937989));
#393=CARTESIAN_POINT('',(0.303824565674195,-0.100600725928017,-0.000514227390115414));
#394=CARTESIAN_POINT('',(0.314469304156695,0.,0.0170820411248475));
#395=CARTESIAN_POINT('',(0.314769122105351,-0.033502080731601,0.0115625870386378));
#396=CARTESIAN_POINT('',(0.314923669444698,-0.0670589083966504,0.00603222860823018));
#397=CARTESIAN_POINT('',(0.314932509045076,-0.100600725928017,0.000502460701794029));
#398=CARTESIAN_POINT('',(0.337098525869816,0.,0.0202465461215402));
#399=CARTESIAN_POINT('',(0.337453886091768,-0.033502080731601,0.014329911933485));
#400=CARTESIAN_POINT('',(0.337653540515585,-0.0670589083966504,0.00840069370766613));
#401=CARTESIAN_POINT('',(0.337696949877401,-0.100600725928017,0.00247121463246925));
#402=CARTESIAN_POINT('',(0.348688719599428,0.,0.0218109765853459));
#403=CARTESIAN_POINT('',(0.349071538151976,-0.033502080731601,0.0156909154131772));
#404=CARTESIAN_POINT('',(0.349293305691858,-0.0670589083966504,0.00955743596584705));
#405=CARTESIAN_POINT('',(0.349353432702617,-0.100600725928017,0.00342328564582193));
#406=CARTESIAN_POINT('',(0.372429564210467,0.,0.0248606633702179));
#407=CARTESIAN_POINT('',(0.372865909787638,-0.033502080731601,0.0183239112839714));
#408=CARTESIAN_POINT('',(0.373130253969937,-0.0670589083966504,0.011772103709288));
#409=CARTESIAN_POINT('',(0.373221909960028,-0.100600725928017,0.00521885689822577));
#410=CARTESIAN_POINT('',(0.384580199421881,0.,0.0263459267653516));
#411=CARTESIAN_POINT('',(0.385042613817238,-0.033502080731601,0.0195959110241753));
#412=CARTESIAN_POINT('',(0.385327421657365,-0.0670589083966504,0.0128300368155627));
#413=CARTESIAN_POINT('',(0.38543388911637,-0.100600725928017,0.0060623650265144));
#414=CARTESIAN_POINT('',(0.40945588785925,0.,0.0291910133628756));
#415=CARTESIAN_POINT('',(0.409968238209051,-0.033502080731601,0.0220043883298605));
#416=CARTESIAN_POINT('',(0.410291504831218,-0.0670589083966504,0.0148003513963871));
#417=CARTESIAN_POINT('',(0.410424864765016,-0.100600725928017,0.00759387362316391));
#418=CARTESIAN_POINT('',(0.422180924633534,0.,0.0305508463165449));
#419=CARTESIAN_POINT('',(0.422717142290743,-0.033502080731601,0.0231408759353745));
#420=CARTESIAN_POINT('',(0.423058404215974,-0.0670589083966504,0.0157127431953711));
#421=CARTESIAN_POINT('',(0.423203845341842,-0.100600725928017,0.00828188469541285));
#422=CARTESIAN_POINT('',(0.448224558118374,0.,0.0330958088308815));
#423=CARTESIAN_POINT('',(0.448805444058189,-0.033502080731601,0.0252287297991765));
#424=CARTESIAN_POINT('',(0.44917935408237,-0.0670589083966504,0.0173420626169273));
#425=CARTESIAN_POINT('',(0.449345345643005,-0.100600725928017,0.00945219653300546));
#426=CARTESIAN_POINT('',(0.461543137595602,0.,0.0342809508200393));
#427=CARTESIAN_POINT('',(0.462144824728755,-0.033502080731601,0.0261801087884281));
#428=CARTESIAN_POINT('',(0.46253338777505,-0.0670589083966504,0.0180590032673533));
#429=CARTESIAN_POINT('',(0.462707848812237,-0.100600725928017,0.00993451061688774));
#430=CARTESIAN_POINT('',(0.488798684742074,0.,0.036423938358301));
#431=CARTESIAN_POINT('',(0.48943798483512,-0.033502080731601,0.0278447165958829));
#432=CARTESIAN_POINT('',(0.489851576339014,-0.0670589083966504,0.0192439798769046));
#433=CARTESIAN_POINT('',(0.490038419251097,-0.100600725928017,0.0106396012330181));
#434=CARTESIAN_POINT('',(0.502735634396332,0.,0.0373817990131066));
#435=CARTESIAN_POINT('',(0.503391746521062,-0.033502080731601,0.0285579608359807));
#436=CARTESIAN_POINT('',(0.503815713734046,-0.0670589083966504,0.0197120315673032));
#437=CARTESIAN_POINT('',(0.504006469325994,-0.100600725928017,0.0108623937984553));
#438=CARTESIAN_POINT('',(0.531258965211343,0.,0.0390138879759359));
#439=CARTESIAN_POINT('',(0.531943723184733,-0.033502080731601,0.0296894183771156));
#440=CARTESIAN_POINT('',(0.532383160546406,-0.0670589083966504,0.0203418303848038));
#441=CARTESIAN_POINT('',(0.532576167917956,-0.100600725928017,0.0109905492592979));
#442=CARTESIAN_POINT('',(0.545845327575452,0.,0.0396881340668729));
#443=CARTESIAN_POINT('',(0.546541919677937,-0.033502080731601,0.0301076497909781));
#444=CARTESIAN_POINT('',(0.546986451800193,-0.0670589083966504,0.0205035959465984));
#445=CARTESIAN_POINT('',(0.547177798600664,-0.100600725928017,0.010895930902543));
#446=CARTESIAN_POINT('',(0.57570529435782,0.,0.040692421806336));
#447=CARTESIAN_POINT('',(0.576419513363771,-0.033502080731601,0.0305878459466442));
#448=CARTESIAN_POINT('',(0.576867872532611,-0.0670589083966504,0.0204589507882984));
#449=CARTESIAN_POINT('',(0.577049227575237,-0.100600725928017,0.0103267858115007));
#450=CARTESIAN_POINT('',(0.590978879197778,0.,0.0410224839149869));
#451=CARTESIAN_POINT('',(0.591698891337208,-0.033502080731601,0.0306498314922039));
#452=CARTESIAN_POINT('',(0.592145983160411,-0.0670589083966504,0.0202525612063159));
#453=CARTESIAN_POINT('',(0.592319007393119,-0.100600725928017,0.00985228053970359));
#454=CARTESIAN_POINT('',(0.622258444336837,0.,0.0412730217597806));
#455=CARTESIAN_POINT('',(0.622982853827974,-0.033502080731601,0.0303513614645613));
#456=CARTESIAN_POINT('',(0.623419879417884,-0.0670589083966504,0.0194046686031973));
#457=CARTESIAN_POINT('',(0.62356838325535,-0.100600725928017,0.00845569316702198));
#458=CARTESIAN_POINT('',(0.63826440427598,0.,0.0411935206332597));
#459=CARTESIAN_POINT('',(0.638987418391441,-0.033502080731601,0.0299909293860457));
#460=CARTESIAN_POINT('',(0.639415645509433,-0.0670589083966504,0.0187631894235929));
#461=CARTESIAN_POINT('',(0.639547960186091,-0.100600725928017,0.00753363524327834));
#462=CARTESIAN_POINT('',(0.671061814949623,0.,0.0405540862812337));
#463=CARTESIAN_POINT('',(0.671773605939328,-0.033502080731601,0.0287758464732001));
#464=CARTESIAN_POINT('',(0.672175435880275,-0.0670589083966504,0.0169724403346354));
#465=CARTESIAN_POINT('',(0.672266222155556,-0.100600725928017,0.00516839977662573));
#466=CARTESIAN_POINT('',(0.687853244542508,0.,0.0399941788702762));
#467=CARTESIAN_POINT('',(0.688555208235219,-0.033502080731601,0.0279212218244878));
#468=CARTESIAN_POINT('',(0.688939439934152,-0.0670589083966504,0.0158231969702335));
#469=CARTESIAN_POINT('',(0.689004887441046,-0.100600725928017,0.00372524912550823));
#470=CARTESIAN_POINT('',(0.722283254314668,0.,0.0383168881482692));
#471=CARTESIAN_POINT('',(0.722955778793418,-0.033502080731601,0.0256396277392804));
#472=CARTESIAN_POINT('',(0.723294632277457,-0.0670589083966504,0.0129377462905101));
#473=CARTESIAN_POINT('',(0.723298844268396,-0.100600725928017,0.000237645041521587));
#474=CARTESIAN_POINT('',(0.739921812570672,0.,0.0371995333289786));
#475=CARTESIAN_POINT('',(0.740574725632531,-0.033502080731601,0.0242126871793337));
#476=CARTESIAN_POINT('',(0.740885799654178,-0.0670589083966504,0.0112015682235593));
#477=CARTESIAN_POINT('',(0.740854115417395,-0.100600725928017,-0.00180677878490552));
#478=CARTESIAN_POINT('',(0.776116949888244,0.,0.0343232913199693));
#479=CARTESIAN_POINT('',(0.776719380166888,-0.033502080731601,0.0207011609122817));
#480=CARTESIAN_POINT('',(0.776963204624757,-0.0670589083966504,0.00705574208716193));
#481=CARTESIAN_POINT('',(0.776847630578456,-0.100600725928017,-0.00658460022810888));
#482=CARTESIAN_POINT('',(0.794673506244883,0.,0.032564435299221));
#483=CARTESIAN_POINT('',(0.79524506570427,-0.033502080731601,0.0186166067726557));
#484=CARTESIAN_POINT('',(0.795449420618616,-0.0670589083966504,0.00464612596950563));
#485=CARTESIAN_POINT('',(0.795285853558032,-0.100600725928017,-0.00931796552379253));
#486=CARTESIAN_POINT('',(0.832785389834082,0.,0.0283132268367935));
#487=CARTESIAN_POINT('',(0.833282333585006,-0.033502080731601,0.013696471999046));
#488=CARTESIAN_POINT('',(0.833394406429414,-0.0670589083966504,-0.000941333152698535));
#489=CARTESIAN_POINT('',(0.833121068825465,-0.100600725928017,-0.0155697576731374));
#490=CARTESIAN_POINT('',(0.852340693580054,0.,0.0258209082412961));
#491=CARTESIAN_POINT('',(0.85279389303583,-0.033502080731601,0.0108609256234725));
#492=CARTESIAN_POINT('',(0.852853153959063,-0.0670589083966504,-0.00411914150203667));
#493=CARTESIAN_POINT('',(0.852518039441211,-0.100600725928017,-0.0190881494910555));
#494=CARTESIAN_POINT('',(0.892541394742211,0.,0.0200019277714196));
#495=CARTESIAN_POINT('',(0.892892461509335,-0.033502080731601,0.00433635665460725));
#496=CARTESIAN_POINT('',(0.892830942381055,-0.0670589083966504,-0.0113469919098196));
#497=CARTESIAN_POINT('',(0.892356636833721,-0.100600725928017,-0.0270155095640657));
#498=CARTESIAN_POINT('',(0.913186767890152,0.,0.0166753024204336));
#499=CARTESIAN_POINT('',(0.913479446904818,-0.033502080731601,0.0006473710106563));
#500=CARTESIAN_POINT('',(0.913349960298817,-0.0670589083966504,-0.0153969966096352));
#501=CARTESIAN_POINT('',(0.912798241298748,-0.100600725928017,-0.0314244400687639));
#502=CARTESIAN_POINT('',(0.945049356745254,0.,0.0109765180280259));
#503=CARTESIAN_POINT('',(0.94524201271034,-0.033502080731601,-0.0056106542803985));
#504=CARTESIAN_POINT('',(0.94499771299849,-0.0670589083966504,-0.0222119316669028));
#505=CARTESIAN_POINT('',(0.944316617880577,-0.100600725928017,-0.0387927934908055));
#506=CARTESIAN_POINT('',(0.966589440374704,0.,0.00694088351144074));
#507=CARTESIAN_POINT('',(0.966711264309037,-0.033502080731601,-0.0100243527321099));
#508=CARTESIAN_POINT('',(0.966386132287371,-0.0670589083966504,-0.0270020334662981));
#509=CARTESIAN_POINT('',(0.965614364755785,-0.100600725928017,-0.0439568537818527));
#510=CARTESIAN_POINT('',(0.988754136652958,0.,0.00240260429613516));
#511=CARTESIAN_POINT('',(0.988796306314431,-0.033502080731601,-0.0149516588630016));
#512=CARTESIAN_POINT('',(0.988381226071752,-0.0670589083966504,-0.03231647943271));
#513=CARTESIAN_POINT('',(0.987509395274157,-0.100600725928017,-0.0496557457221227));
#514=CARTESIAN_POINT('',(1.,0.,0.));
#515=CARTESIAN_POINT('',(1.,-0.033502080731601,-0.0175516465780693));
#516=CARTESIAN_POINT('',(0.999537526225194,-0.0670589083966504,-0.0351128468649356));
#517=CARTESIAN_POINT('',(0.998613172447747,-0.100600725928017,-0.0526470798864466));
#518=CARTESIAN_POINT('',(1.,0.,0.));
#519=CARTESIAN_POINT('',(1.,-0.0789473684210526,-0.0413603059432639));
#520=CARTESIAN_POINT('',(0.99658449300667,-0.157894736842106,-0.0825793454723323));
#521=CARTESIAN_POINT('',(0.99316898601334,-0.236842105263158,-0.123798385001401));
#522=CARTESIAN_POINT('',(0.986361303402722,-0.315789473684211,-0.164594590280734));
#523=CARTESIAN_POINT('',(0.,0.,0.));
#524=CARTESIAN_POINT('',(1.,0.,1.23693584918215E-17));
#525=CARTESIAN_POINT('',(1.,-0.0335020807414271,-0.0175516465832171));
#526=CARTESIAN_POINT('',(0.999537526224922,-0.0670589084163346,-0.0351128468752369));
#527=CARTESIAN_POINT('',(0.998613172446933,-0.10060072595753,-0.0526470799018748));
#528=CARTESIAN_POINT('',(0.978949652777778,0.,0.010708178829834));
#529=CARTESIAN_POINT('',(0.979137598948149,-0.0335020807414271,-0.00647399949848463));
#530=CARTESIAN_POINT('',(0.978872908879811,-0.0670589084163346,-0.0236704826786061));
#531=CARTESIAN_POINT('',(0.978155772772698,-0.10060072595753,-0.0408455121573146));
#532=CARTESIAN_POINT('',(0.95835687847877,0.,0.0206225313580165));
#533=CARTESIAN_POINT('',(0.958718837860817,-0.0335020807414271,0.00380179012636198));
#534=CARTESIAN_POINT('',(0.958637779341062,-0.0670589084163346,-0.0130376443477674));
#535=CARTESIAN_POINT('',(0.958113518810209,-0.10060072595753,-0.0298607596924679));
#536=CARTESIAN_POINT('',(0.918035578120638,0.,0.0389997482696567));
#537=CARTESIAN_POINT('',(0.918720087919101,-0.0335020807414271,0.0228867122516639));
#538=CARTESIAN_POINT('',(0.918980402930334,-0.0670589084163346,0.00674686922827781));
#539=CARTESIAN_POINT('',(0.918815643949511,-0.10060072595753,-0.00938623008988731));
#540=CARTESIAN_POINT('',(0.898307056890594,0.,0.0474626241084209));
#541=CARTESIAN_POINT('',(0.899140104094857,-0.0335020807414271,0.0316958561226673));
#542=CARTESIAN_POINT('',(0.89955816128743,-0.0670589084163346,0.0158985557539302));
#543=CARTESIAN_POINT('',(0.899560028476772,-0.10060072595753,0.000103558233029472));
#544=CARTESIAN_POINT('',(0.859667865766419,0.,0.0630662378215575));
#545=CARTESIAN_POINT('',(0.860774782083996,-0.0335020807414271,0.0479776512626768));
#546=CARTESIAN_POINT('',(0.861484727074851,-0.0670589084163346,0.0328516852062543));
#547=CARTESIAN_POINT('',(0.861795907945391,-0.10060072595753,0.0177197730071995));
#548=CARTESIAN_POINT('',(0.82184653322178,0.,0.0773477283510508));
#549=CARTESIAN_POINT('',(0.823204113213812,-0.0335020807414271,0.0629229684543));
#550=CARTESIAN_POINT('',(0.824182349694763,-0.0670589084163346,0.048454585579166));
#551=CARTESIAN_POINT('',(0.824778905839841,-0.10060072595753,0.0339726402886007));
#552=CARTESIAN_POINT('',(0.767441948893032,0.,0.0951701705948764));
#553=CARTESIAN_POINT('',(0.769112342092578,-0.033502080741427,0.0817003007347706));
#554=CARTESIAN_POINT('',(0.770428722744962,-0.0670589084163346,0.0681790852496922));
#555=CARTESIAN_POINT('',(0.771388070828511,-0.10060072595753,0.0546346083766435));
#556=CARTESIAN_POINT('',(0.715251233320925,0.,0.109737263262431));
#557=CARTESIAN_POINT('',(0.717177302982717,-0.0335020807414271,0.0971834263969721));
#558=CARTESIAN_POINT('',(0.718773636104363,-0.0670589084163346,0.0845720056231015));
#559=CARTESIAN_POINT('',(0.720036649670381,-0.10060072595753,0.0719291877715795));
#560=CARTESIAN_POINT('',(0.665173006546899,0.,0.121370797601831));
#561=CARTESIAN_POINT('',(0.66730326389193,-0.033502080741427,0.109695916074224));
#562=CARTESIAN_POINT('',(0.6691270557068,-0.0670589084163346,0.0979585488664582));
#563=CARTESIAN_POINT('',(0.670640344372962,-0.10060072595753,0.0861830608113348));
#564=CARTESIAN_POINT('',(0.617117624455811,0.,0.13036964665608));
#565=CARTESIAN_POINT('',(0.619405826419097,-0.0335020807414271,0.119538216211357));
#566=CARTESIAN_POINT('',(0.621409873178575,-0.0670589084163346,0.108640597461909));
#567=CARTESIAN_POINT('',(0.623125369935015,-0.10060072595753,0.0976994055544337));
#568=CARTESIAN_POINT('',(0.57100674268501,0.,0.137009704564882));
#569=CARTESIAN_POINT('',(0.573411488598004,-0.033502080741427,0.126987596020641));
#570=CARTESIAN_POINT('',(0.575553467817934,-0.0670589084163346,0.116896668848963));
#571=CARTESIAN_POINT('',(0.577428015664827,-0.10060072595753,0.106757858124907));
#572=CARTESIAN_POINT('',(0.52677288237557,0.,0.141544045335683));
#573=CARTESIAN_POINT('',(0.529257213435261,-0.0335020807414271,0.132298313874605));
#574=CARTESIAN_POINT('',(0.531499278122023,-0.0670589084163346,0.122982089369817));
#575=CARTESIAN_POINT('',(0.533494219892506,-0.10060072595753,0.113614694125072));
#576=CARTESIAN_POINT('',(0.48435899546298,0.,0.14420329699617));
#577=CARTESIAN_POINT('',(0.486890000767991,-0.033502080741427,0.135701999088402));
#578=CARTESIAN_POINT('',(0.489198380416186,-0.0670589084163346,0.127129383512695));
#579=CARTESIAN_POINT('',(0.491279155561568,-0.10060072595753,0.118503225155322));
#580=CARTESIAN_POINT('',(0.45726501983073,0.,0.144865250286246));
#581=CARTESIAN_POINT('',(0.459807643505944,-0.0335020807414271,0.136839496263309));
#582=CARTESIAN_POINT('',(0.462140178101642,-0.0670589084163346,0.12874237728435));
#583=CARTESIAN_POINT('',(0.464257604509001,-0.10060072595753,0.120590679130306));
#584=CARTESIAN_POINT('',(0.430749518382881,0.,0.145034346876785));
#585=CARTESIAN_POINT('',(0.43329510998169,-0.0335020807414271,0.137473983564237));
#586=CARTESIAN_POINT('',(0.435642876840536,-0.0670589084163346,0.129842430414309));
#587=CARTESIAN_POINT('',(0.437787777930855,-0.10060072595753,0.122155504936397));
#588=CARTESIAN_POINT('',(0.417781008614434,0.,0.144872456384513));
#589=CARTESIAN_POINT('',(0.420323758768538,-0.0335020807414271,0.137539711772132));
#590=CARTESIAN_POINT('',(0.422674680231694,-0.0670589084163346,0.130135976089843));
#591=CARTESIAN_POINT('',(0.424828730187396,-0.10060072595753,0.122676593128308));
#592=CARTESIAN_POINT('',(0.392413006888496,0.,0.144111724720461));
#593=CARTESIAN_POINT('',(0.394942404949287,-0.0335020807414271,0.137224230308896));
#594=CARTESIAN_POINT('',(0.397291699086846,-0.0670589084163346,0.130266339004369));
#595=CARTESIAN_POINT('',(0.399455859204516,-0.10060072595753,0.123252467681705));
#596=CARTESIAN_POINT('',(0.380013519760084,0.,0.143512868579663));
#597=CARTESIAN_POINT('',(0.382532406909537,-0.0335020807414271,0.136843005583989));
#598=CARTESIAN_POINT('',(0.384876918852083,-0.0670589084163346,0.130103141111703));
#599=CARTESIAN_POINT('',(0.387042039999403,-0.10060072595753,0.123307238840695));
#600=CARTESIAN_POINT('',(0.35577700632038,0.,0.14192784514956));
#601=CARTESIAN_POINT('',(0.358268073698762,-0.0335020807414271,0.13568337287219));
#602=CARTESIAN_POINT('',(0.36059595947925,-0.0670589084163346,0.129369863698567));
#603=CARTESIAN_POINT('',(0.362755691569157,-0.10060072595753,0.12300039522436));
#604=CARTESIAN_POINT('',(0.343939984838168,0.,0.140941660489026));
#605=CARTESIAN_POINT('',(0.346413743051923,-0.0335020807414271,0.13490494742931));
#606=CARTESIAN_POINT('',(0.348729784558073,-0.0670589084163346,0.12879976664534));
#607=CARTESIAN_POINT('',(0.350883166251862,-0.10060072595753,0.122638762847661));
#608=CARTESIAN_POINT('',(0.320824598272642,0.,0.138625842423185));
#609=CARTESIAN_POINT('',(0.323257710066154,-0.0335020807414271,0.132994842459101));
#610=CARTESIAN_POINT('',(0.325543773287497,-0.0670589084163346,0.12729666661356));
#611=CARTESIAN_POINT('',(0.327677915682574,-0.10060072595753,0.121543114025599));
#612=CARTESIAN_POINT('',(0.309546238018407,0.,0.137296189244438));
#613=CARTESIAN_POINT('',(0.311956012209248,-0.0335020807414271,0.131863143073574));
#614=CARTESIAN_POINT('',(0.314223941070643,-0.0670589084163346,0.126363643701148));
#615=CARTESIAN_POINT('',(0.31634519421195,-0.10060072595753,0.120809077579983));
#616=CARTESIAN_POINT('',(0.287546977193819,0.,0.134332076588666));
#617=CARTESIAN_POINT('',(0.289904726326893,-0.0335020807414271,0.129285153668887));
#618=CARTESIAN_POINT('',(0.292130775893455,-0.0670589084163346,0.124173358546448));
#619=CARTESIAN_POINT('',(0.294220390692594,-0.10060072595753,0.119007272479726));
#620=CARTESIAN_POINT('',(0.276826081452546,0.,0.13269759493599));
#621=CARTESIAN_POINT('',(0.279155142741306,-0.0335020807414271,0.127838841389318));
#622=CARTESIAN_POINT('',(0.281357446981317,-0.0670589084163346,0.122916073969201));
#623=CARTESIAN_POINT('',(0.283428312298762,-0.10060072595753,0.117939481425952));
#624=CARTESIAN_POINT('',(0.255943015769676,0.,0.129157877057989));
#625=CARTESIAN_POINT('',(0.258209949181237,-0.0335020807414271,0.124665655699757));
#626=CARTESIAN_POINT('',(0.260359749596836,-0.0670589084163346,0.120111257005498));
#627=CARTESIAN_POINT('',(0.26238785201682,-0.10060072595753,0.115504104953837));
#628=CARTESIAN_POINT('',(0.245780850657159,0.,0.127252616254802));
#629=CARTESIAN_POINT('',(0.248014343604453,-0.0335020807414271,0.122938757627145));
#630=CARTESIAN_POINT('',(0.250135385088341,-0.0670589084163346,0.118563699882984));
#631=CARTESIAN_POINT('',(0.25213947365714,-0.10060072595753,0.114136494737482));
#632=CARTESIAN_POINT('',(0.226018830306,0.,0.123201502383244));
#633=CARTESIAN_POINT('',(0.228181219534352,-0.0335020807414271,0.119234499752561));
#634=CARTESIAN_POINT('',(0.230240258012292,-0.0670589084163346,0.115208360339887));
#635=CARTESIAN_POINT('',(0.232191580504622,-0.10060072595753,0.111131411726712));
#636=CARTESIAN_POINT('',(0.21641897989644,0.,0.1210556223348));
#637=CARTESIAN_POINT('',(0.218543705396571,-0.0335020807414271,0.117257112885757));
#638=CARTESIAN_POINT('',(0.220569499324237,-0.0670589084163346,0.113400550782145));
#639=CARTESIAN_POINT('',(0.222492069113744,-0.10060072595753,0.109493911735402));
#640=CARTESIAN_POINT('',(0.197787346111404,0.,0.116550316231075));
#641=CARTESIAN_POINT('',(0.199832996071054,-0.0335020807414271,0.113078822633496));
#642=CARTESIAN_POINT('',(0.201788288057867,-0.0670589084163346,0.109551537968472));
#643=CARTESIAN_POINT('',(0.203649082981375,-0.10060072595753,0.105975754826901));
#644=CARTESIAN_POINT('',(0.188755567565009,0.,0.11419086079351));
#645=CARTESIAN_POINT('',(0.19075980519669,-0.0335020807414271,0.110877889780995));
#646=CARTESIAN_POINT('',(0.192677839274704,-0.0670589084163346,0.107510305174281));
#647=CARTESIAN_POINT('',(0.194505611515375,-0.10060072595753,0.104095068313935));
#648=CARTESIAN_POINT('',(0.17126786288012,0.,0.109283179556157));
#649=CARTESIAN_POINT('',(0.17318596262518,-0.0335020807414271,0.106277146555822));
#650=CARTESIAN_POINT('',(0.175025899534818,-0.0670589084163346,0.103218936707596));
#651=CARTESIAN_POINT('',(0.176783784174947,-0.10060072595753,0.100114869769989));
#652=CARTESIAN_POINT('',(0.162811941570706,0.,0.106734921971872));
#653=CARTESIAN_POINT('',(0.164685315199244,-0.0335020807414271,0.103877304313896));
#654=CARTESIAN_POINT('',(0.166484412288899,-0.0670589084163346,0.100968769095743));
#655=CARTESIAN_POINT('',(0.168205431449541,-0.10060072595753,0.0980153257443549));
#656=CARTESIAN_POINT('',(0.146485620074802,0.,0.101473058973675));
#657=CARTESIAN_POINT('',(0.148266639343626,-0.0335020807414271,0.0989019951405984));
#658=CARTESIAN_POINT('',(0.149980882298796,-0.0670589084163346,0.0962826031979118));
#659=CARTESIAN_POINT('',(0.151624730024429,-0.10060072595753,0.0936202931950424));
#660=CARTESIAN_POINT('',(0.138615224717392,0.,0.0987594193730546));
#661=CARTESIAN_POINT('',(0.140348615142992,-0.0335020807414271,0.0963264939377617));
#662=CARTESIAN_POINT('',(0.142018843181067,-0.0670589084163346,0.0938465705714743));
#663=CARTESIAN_POINT('',(0.143622384347275,-0.10060072595753,0.0913247702778303));
#664=CARTESIAN_POINT('',(0.123471362309324,0.,0.0931898513308241));
#665=CARTESIAN_POINT('',(0.125106997645025,-0.0335020807414271,0.0910227256164225));
#666=CARTESIAN_POINT('',(0.126686421022388,-0.0670589084163346,0.0888113224302361));
#667=CARTESIAN_POINT('',(0.128206302371116,-0.10060072595753,0.0865602064002401));
#668=CARTESIAN_POINT('',(0.116197900087745,0.,0.090333886300295));
#669=CARTESIAN_POINT('',(0.117783408534577,-0.0335020807414271,0.088294421824243));
#670=CARTESIAN_POINT('',(0.119316041523543,-0.0670589084163346,0.0862120701738752));
#671=CARTESIAN_POINT('',(0.120792568968194,-0.10060072595753,0.0840911286474486));
#672=CARTESIAN_POINT('',(0.102260904731574,0.,0.0845034244773219));
#673=CARTESIAN_POINT('',(0.103744078973072,-0.0335020807414271,0.0827085772181933));
#674=CARTESIAN_POINT('',(0.105180767549025,-0.0670589084163346,0.080873672370434));
#675=CARTESIAN_POINT('',(0.10656794503173,-0.10060072595753,0.0790024947776871));
#676=CARTESIAN_POINT('',(0.0955973764260612,0.,0.0815288886937478));
#677=CARTESIAN_POINT('',(0.0970283426667363,-0.0335020807414271,0.0798509973284348));
#678=CARTESIAN_POINT('',(0.0984158765311097,-0.0670589084163346,0.078134487680693));
#679=CARTESIAN_POINT('',(0.0997570572678034,-0.10060072595753,0.076382899469424));
#680=CARTESIAN_POINT('',(0.0828946984062594,0.,0.0754868742349309));
#681=CARTESIAN_POINT('',(0.0842196173445027,-0.0335020807414271,0.0740319357848819));
#682=CARTESIAN_POINT('',(0.0855069208382549,-0.0670589084163346,0.0725412946833268));
#683=CARTESIAN_POINT('',(0.0867539012538956,-0.10060072595753,0.0710180231474109));
#684=CARTESIAN_POINT('',(0.0768555535210505,0.,0.0724193541663468));
#685=CARTESIAN_POINT('',(0.0781266324311631,-0.0335020807414271,0.0710704126529878));
#686=CARTESIAN_POINT('',(0.0793628595367245,-0.0670589084163346,0.0696872448319406));
#687=CARTESIAN_POINT('',(0.0805616356470592,-0.10060072595753,0.0682727005434881));
#688=CARTESIAN_POINT('',(0.0654173956976998,0.,0.0662199975659986));
#689=CARTESIAN_POINT('',(0.0665796656917197,-0.0335020807414271,0.0650718145563181));
#690=CARTESIAN_POINT('',(0.0677123145023693,-0.0670589084163346,0.0638923815556286));
#691=CARTESIAN_POINT('',(0.0688129625538555,-0.10060072595753,0.0626841269905408));
#692=CARTESIAN_POINT('',(0.060018387588638,0.,0.063088117238682));
#693=CARTESIAN_POINT('',(0.061125687926012,-0.0335020807414271,0.0620346957112317));
#694=CARTESIAN_POINT('',(0.0622058340586047,-0.0670589084163346,0.0609515241858416));
#695=CARTESIAN_POINT('',(0.0632565575841632,-0.10060072595753,0.0598408320524636));
#696=CARTESIAN_POINT('',(0.0498774156526285,0.,0.0567929819410092));
#697=CARTESIAN_POINT('',(0.0508742260000641,-0.0335020807414271,0.0559175511689901));
#698=CARTESIAN_POINT('',(0.0518485119344033,-0.0670589084163346,0.0550153786179098));
#699=CARTESIAN_POINT('',(0.0527982289364397,-0.10060072595753,0.0540883195816697));
#700=CARTESIAN_POINT('',(0.0451354566547608,0.,0.0536296807728893));
#701=CARTESIAN_POINT('',(0.0460767458580573,-0.0335020807414271,0.0528374791893128));
#702=CARTESIAN_POINT('',(0.0469976734586781,-0.0670589084163346,0.0520200440738036));
#703=CARTESIAN_POINT('',(0.047896307648614,-0.10060072595753,0.0511790556610205));
#704=CARTESIAN_POINT('',(0.0363265093829899,0.,0.0473103109051495));
#705=CARTESIAN_POINT('',(0.0371568832397392,-0.0335020807414271,0.0466727208508574));
#706=CARTESIAN_POINT('',(0.0379709090274925,-0.0670589084163346,0.0460129039655883));
#707=CARTESIAN_POINT('',(0.0387668804972768,-0.10060072595753,0.0453322150203997));
#708=CARTESIAN_POINT('',(0.0322595259381667,0.,0.0441541936055545));
#709=CARTESIAN_POINT('',(0.0330345047394984,-0.0335020807414271,0.0435879858073457));
#710=CARTESIAN_POINT('',(0.0337949861923953,-0.0670589084163346,0.0430010496544177));
#711=CARTESIAN_POINT('',(0.0345393768975013,-0.10060072595753,0.0423945895136157));
#712=CARTESIAN_POINT('',(0.0248193254487384,0.,0.0378948858438882));
#713=CARTESIAN_POINT('',(0.0254844430923817,-0.0335020807414271,0.037459265815178));
#714=CARTESIAN_POINT('',(0.0261384444855943,-0.0670589084163346,0.0370058832789476));
#715=CARTESIAN_POINT('',(0.0267799604072532,-0.10060072595753,0.0365356671620692));
#716=CARTESIAN_POINT('',(0.0214461132332133,0.,0.0347916443796303));
#717=CARTESIAN_POINT('',(0.0220567638794135,-0.0335020807414271,0.0344152297795773));
#718=CARTESIAN_POINT('',(0.0226578286499052,-0.0670589084163346,0.0340225200664861));
#719=CARTESIAN_POINT('',(0.0232480496540473,-0.10060072595753,0.0336143191316145));
#720=CARTESIAN_POINT('',(0.015412975240637,0.,0.0286923639475687));
#721=CARTESIAN_POINT('',(0.0159165734722817,-0.0335020807414271,0.0284218408533492));
#722=CARTESIAN_POINT('',(0.0164133177255718,-0.0670589084163346,0.0281379010421817));
#723=CARTESIAN_POINT('',(0.0169021692792198,-0.10060072595753,0.0278411244476642));
#724=CARTESIAN_POINT('',(0.0127530542926658,0.,0.0256962715753672));
#725=CARTESIAN_POINT('',(0.013204066169863,-0.0335020807414271,0.0254724344735658));
#726=CARTESIAN_POINT('',(0.0136494255885937,-0.0670589084163346,0.0252365916810764));
#727=CARTESIAN_POINT('',(0.0140882016683956,-0.10060072595753,0.0249892242095965));
#728=CARTESIAN_POINT('',(0.00816659836305534,0.,0.0198757123750163));
#729=CARTESIAN_POINT('',(0.0085154498422513,-0.0335020807414271,0.0197323751267609));
#730=CARTESIAN_POINT('',(0.00886071437064104,-0.0670589084163346,0.0195797678614683));
#731=CARTESIAN_POINT('',(0.00920167091694479,-0.10060072595753,0.0194182006329115));
#732=CARTESIAN_POINT('',(0.00624006821049606,0.,0.0170511897402579));
#733=CARTESIAN_POINT('',(0.00653934466664045,-0.0335020807414271,0.0169416662683721));
#734=CARTESIAN_POINT('',(0.0068358981569843,-0.0670589084163346,0.016824197452603));
#735=CARTESIAN_POINT('',(0.00712910966064612,-0.10060072595753,0.0166990213108424));
#736=CARTESIAN_POINT('',(0.00314092801676878,0.,0.0116499786161577));
#737=CARTESIAN_POINT('',(0.00334540432414162,-0.0335020807414271,0.0115948501576641));
#738=CARTESIAN_POINT('',(0.00354853933518055,-0.0670589084163346,0.0115343038820686));
#739=CARTESIAN_POINT('',(0.00374990944631292,-0.10060072595753,0.0114684614165553));
#740=CARTESIAN_POINT('',(0.0019683228046808,0.,0.00907323191799565));
#741=CARTESIAN_POINT('',(0.00212757296467302,-0.0335020807414271,0.00903868461176621));
#742=CARTESIAN_POINT('',(0.00228599951000284,-0.0670589084163346,0.00899992236893658));
#743=CARTESIAN_POINT('',(0.00244327224613689,-0.10060072595753,0.0089570224620057));
#744=CARTESIAN_POINT('',(0.00039785638175651,0.,0.0042572770536553));
#745=CARTESIAN_POINT('',(0.000472578604009108,-0.0335020807414271,0.00425029401905184));
#746=CARTESIAN_POINT('',(0.000547157500904159,-0.0670589084163346,0.0042413383044538));
#747=CARTESIAN_POINT('',(0.000621437828772335,-0.10060072595753,0.00423042696781645));
#748=CARTESIAN_POINT('',(2.22044604925032E-16,0.,0.00201800827644558));
#749=CARTESIAN_POINT('',(3.54193680704019E-5,-0.0335020807414271,0.00201800827644557));
#750=CARTESIAN_POINT('',(7.08580156040162E-5,-0.0670589084163346,0.00201707500053982));
#751=CARTESIAN_POINT('',(0.000106242242972896,-0.10060072595753,0.00201520964696547));
#752=CARTESIAN_POINT('',(2.22044604925032E-16,0.,0.));
#753=CARTESIAN_POINT('',(2.22044604925031E-16,-0.0335020807414271,-3.89724843135422E-18));
#754=CARTESIAN_POINT('',(2.21941915118356E-16,-0.0670589084163346,-7.7966182122051E-18));
#755=CARTESIAN_POINT('',(2.21736667348911E-16,-0.10060072595753,-1.16900000572683E-17));
#756=MECHANICAL_DESIGN_GEOMETRIC_PRESENTATION_REPRESENTATION('',(#146),
#757);
#757=(
GEOMETRIC_REPRESENTATION_CONTEXT(3)
GLOBAL_UNCERTAINTY_ASSIGNED_CONTEXT((#758))
GLOBAL_UNIT_ASSIGNED_CONTEXT((#761,#760,#759))
REPRESENTATION_CONTEXT('Part 1','TOP_LEVEL_ASSEMBLY_PART')
);
#758=UNCERTAINTY_MEASURE_WITH_UNIT(LENGTH_MEASURE(9.85309400429344E-6),
#761,'DISTANCE_ACCURACY_VALUE','Maximum Tolerance applied to model');
#759=(
NAMED_UNIT(*)
SI_UNIT($,.STERADIAN.)
SOLID_ANGLE_UNIT()
);
#760=(
NAMED_UNIT(*)
PLANE_ANGLE_UNIT()
SI_UNIT($,.RADIAN.)
);
#761=(
LENGTH_UNIT()
NAMED_UNIT(*)
SI_UNIT($,.METRE.)
);
#762=PRODUCT_DEFINITION_SHAPE('','',#763);
#763=PRODUCT_DEFINITION('','',#765,#764);
#764=PRODUCT_DEFINITION_CONTEXT('',#771,'design');
#765=PRODUCT_DEFINITION_FORMATION_WITH_SPECIFIED_SOURCE('','',#767,
 .NOT_KNOWN.);
#766=PRODUCT_RELATED_PRODUCT_CATEGORY('','',(#767));
#767=PRODUCT('Part 1','Part 1','Part 1',(#769));
#768=PRODUCT_CATEGORY('','');
#769=PRODUCT_CONTEXT('',#771,'mechanical');
#770=APPLICATION_PROTOCOL_DEFINITION('international standard',
'ap242_managed_model_based_3d_engineering',2020,#771);
#771=APPLICATION_CONTEXT('managed model based 3d engineering');
ENDSEC;
END-ISO-10303-21;
