ISO-10303-21;
HEADER;
/* Generated by software containing ST-Developer
 * from STEP Tools, Inc. (www.steptools.com)
 */
/* OPTION: using custom renumber hook */

FILE_DESCRIPTION(
/* description */ ('STEP AP242 Edition 2',
'CAx-IF Rec.Pracs.---Representation and Presentation of Product Manufa
cturing Information (PMI)---4.0---2014-10-13',
'CAx-IF Rec.Pracs.---3D Tessellated Geometry---0.4---2014-09-14','2;1',
'CAx-IF Rec.Pracs.---User Defined Attributes---1.5---2016-08-15'),
/* implementation_level */ '2;1');

FILE_NAME(
/* name */ 'NACA9512_0deg_10pc',
/* time_stamp */ '2026-04-22T23:45:45Z',
/* author */ (''),
/* organization */ (''),
/* preprocessor_version */ 'ST-DEVELOPER v20',
/* originating_system */ 'ONSHAPE BY PTC INC, 1.213',
/* authorisation */ '  ');

FILE_SCHEMA (('AP242_MANAGED_MODEL_BASED_3D_ENGINEERING_MIM_LF { 1 0 10303 442 3 1 4 }'));
ENDSEC;

DATA;
#10=SHAPE_REPRESENTATION_RELATIONSHIP('','',#157,#11);
#11=ADVANCED_BREP_SHAPE_REPRESENTATION('',(#155),#319);
#12=B_SPLINE_SURFACE_WITH_KNOTS('',3,1,((#252,#253),(#254,#255),(#256,#257),
(#258,#259),(#260,#261),(#262,#263),(#264,#265),(#266,#267),(#268,#269),
(#270,#271),(#272,#273),(#274,#275),(#276,#277),(#278,#279),(#280,#281),
(#282,#283)),.SURF_OF_LINEAR_EXTRUSION.,.F.,.F.,.F.,(4,1,1,1,1,1,1,1,1,
1,1,1,1,4),(2,2),(-9.43544231698057E-21,0.125,0.1875,0.25,0.3125,0.375,
0.5,0.625,0.6875,0.75,0.8125,0.875,0.9375,1.),(0.,1.),.UNSPECIFIED.);
#13=B_SPLINE_SURFACE_WITH_KNOTS('',3,1,((#286,#287),(#288,#289),(#290,#291),
(#292,#293),(#294,#295),(#296,#297),(#298,#299),(#300,#301),(#302,#303),
(#304,#305),(#306,#307),(#308,#309),(#310,#311),(#312,#313),(#314,#315),
(#316,#317)),.SURF_OF_LINEAR_EXTRUSION.,.F.,.F.,.F.,(4,1,1,1,1,1,1,1,1,
1,1,1,1,4),(2,2),(-5.83664337227788E-17,0.125000000000003,0.187500000000004,
0.250000000000006,0.312500000000007,0.375000000000009,0.43750000000001,
0.500000000000012,0.625000000000014,0.750000000000017,0.812500000000019,
0.87500000000002,0.937500000000022,1.00000000000002),(0.,1.),
 .UNSPECIFIED.);
#14=B_SPLINE_CURVE_WITH_KNOTS('',6,(#203,#204,#205,#206,#207,#208,#209),
 .UNSPECIFIED.,.F.,.F.,(7,7),(0.,1.),.PIECEWISE_BEZIER_KNOTS.);
#15=B_SPLINE_CURVE_WITH_KNOTS('',6,(#212,#213,#214,#215,#216,#217,#218),
 .UNSPECIFIED.,.F.,.F.,(7,7),(0.,1.),.PIECEWISE_BEZIER_KNOTS.);
#16=B_SPLINE_CURVE_WITH_KNOTS('',6,(#220,#221,#222,#223,#224,#225,#226),
 .UNSPECIFIED.,.F.,.F.,(7,7),(0.,1.),.PIECEWISE_BEZIER_KNOTS.);
#17=B_SPLINE_CURVE_WITH_KNOTS('',6,(#229,#230,#231,#232,#233,#234,#235),
 .UNSPECIFIED.,.F.,.F.,(7,7),(0.,1.),.PIECEWISE_BEZIER_KNOTS.);
#18=ORIENTED_EDGE('',*,*,#54,.T.);
#19=ORIENTED_EDGE('',*,*,#55,.F.);
#20=ORIENTED_EDGE('',*,*,#56,.F.);
#21=ORIENTED_EDGE('',*,*,#57,.T.);
#22=ORIENTED_EDGE('',*,*,#58,.F.);
#23=ORIENTED_EDGE('',*,*,#59,.F.);
#24=ORIENTED_EDGE('',*,*,#60,.T.);
#25=ORIENTED_EDGE('',*,*,#61,.T.);
#26=ORIENTED_EDGE('',*,*,#62,.F.);
#27=ORIENTED_EDGE('',*,*,#63,.F.);
#28=ORIENTED_EDGE('',*,*,#64,.T.);
#29=ORIENTED_EDGE('',*,*,#65,.T.);
#30=ORIENTED_EDGE('',*,*,#66,.T.);
#31=ORIENTED_EDGE('',*,*,#57,.F.);
#32=ORIENTED_EDGE('',*,*,#67,.F.);
#33=ORIENTED_EDGE('',*,*,#63,.T.);
#34=ORIENTED_EDGE('',*,*,#68,.F.);
#35=ORIENTED_EDGE('',*,*,#65,.F.);
#36=ORIENTED_EDGE('',*,*,#69,.T.);
#37=ORIENTED_EDGE('',*,*,#55,.T.);
#38=ORIENTED_EDGE('',*,*,#64,.F.);
#39=ORIENTED_EDGE('',*,*,#67,.T.);
#40=ORIENTED_EDGE('',*,*,#56,.T.);
#41=ORIENTED_EDGE('',*,*,#69,.F.);
#42=ORIENTED_EDGE('',*,*,#62,.T.);
#43=ORIENTED_EDGE('',*,*,#68,.T.);
#44=ORIENTED_EDGE('',*,*,#54,.F.);
#45=ORIENTED_EDGE('',*,*,#66,.F.);
#46=ORIENTED_EDGE('',*,*,#58,.T.);
#47=ORIENTED_EDGE('',*,*,#70,.F.);
#48=ORIENTED_EDGE('',*,*,#60,.F.);
#49=ORIENTED_EDGE('',*,*,#71,.T.);
#50=ORIENTED_EDGE('',*,*,#71,.F.);
#51=ORIENTED_EDGE('',*,*,#61,.F.);
#52=ORIENTED_EDGE('',*,*,#70,.T.);
#53=ORIENTED_EDGE('',*,*,#59,.T.);
#54=EDGE_CURVE('',#72,#73,#84,.T.);
#55=EDGE_CURVE('',#74,#73,#85,.T.);
#56=EDGE_CURVE('',#75,#74,#86,.T.);
#57=EDGE_CURVE('',#75,#72,#87,.T.);
#58=EDGE_CURVE('',#76,#77,#14,.T.);
#59=EDGE_CURVE('',#77,#76,#15,.T.);
#60=EDGE_CURVE('',#78,#79,#16,.T.);
#61=EDGE_CURVE('',#79,#78,#17,.T.);
#62=EDGE_CURVE('',#80,#81,#88,.T.);
#63=EDGE_CURVE('',#82,#80,#89,.T.);
#64=EDGE_CURVE('',#82,#83,#90,.T.);
#65=EDGE_CURVE('',#83,#81,#91,.T.);
#66=EDGE_CURVE('',#80,#72,#92,.T.);
#67=EDGE_CURVE('',#82,#75,#93,.T.);
#68=EDGE_CURVE('',#81,#73,#94,.T.);
#69=EDGE_CURVE('',#83,#74,#95,.T.);
#70=EDGE_CURVE('',#79,#77,#96,.T.);
#71=EDGE_CURVE('',#78,#76,#97,.T.);
#72=VERTEX_POINT('',#196);
#73=VERTEX_POINT('',#197);
#74=VERTEX_POINT('',#199);
#75=VERTEX_POINT('',#201);
#76=VERTEX_POINT('',#210);
#77=VERTEX_POINT('',#211);
#78=VERTEX_POINT('',#227);
#79=VERTEX_POINT('',#228);
#80=VERTEX_POINT('',#237);
#81=VERTEX_POINT('',#238);
#82=VERTEX_POINT('',#240);
#83=VERTEX_POINT('',#242);
#84=LINE('',#195,#98);
#85=LINE('',#198,#99);
#86=LINE('',#200,#100);
#87=LINE('',#202,#101);
#88=LINE('',#236,#102);
#89=LINE('',#239,#103);
#90=LINE('',#241,#104);
#91=LINE('',#243,#105);
#92=LINE('',#245,#106);
#93=LINE('',#246,#107);
#94=LINE('',#248,#108);
#95=LINE('',#249,#109);
#96=LINE('',#284,#110);
#97=LINE('',#285,#111);
#98=VECTOR('',#169,1.);
#99=VECTOR('',#170,1.);
#100=VECTOR('',#171,1.);
#101=VECTOR('',#172,1.);
#102=VECTOR('',#175,1.);
#103=VECTOR('',#176,1.);
#104=VECTOR('',#177,1.);
#105=VECTOR('',#178,1.);
#106=VECTOR('',#181,1.);
#107=VECTOR('',#182,1.);
#108=VECTOR('',#185,1.);
#109=VECTOR('',#186,1.);
#110=VECTOR('',#191,1.);
#111=VECTOR('',#192,1.);
#112=EDGE_LOOP('',(#18,#19,#20,#21));
#113=EDGE_LOOP('',(#22,#23));
#114=EDGE_LOOP('',(#24,#25));
#115=EDGE_LOOP('',(#26,#27,#28,#29));
#116=EDGE_LOOP('',(#30,#31,#32,#33));
#117=EDGE_LOOP('',(#34,#35,#36,#37));
#118=EDGE_LOOP('',(#38,#39,#40,#41));
#119=EDGE_LOOP('',(#42,#43,#44,#45));
#120=EDGE_LOOP('',(#46,#47,#48,#49));
#121=EDGE_LOOP('',(#50,#51,#52,#53));
#122=FACE_BOUND('',#112,.T.);
#123=FACE_BOUND('',#113,.T.);
#124=FACE_BOUND('',#114,.T.);
#125=FACE_BOUND('',#115,.T.);
#126=FACE_BOUND('',#116,.T.);
#127=FACE_BOUND('',#117,.T.);
#128=FACE_BOUND('',#118,.T.);
#129=FACE_BOUND('',#119,.T.);
#130=FACE_BOUND('',#120,.T.);
#131=FACE_BOUND('',#121,.T.);
#132=PLANE('',#159);
#133=PLANE('',#160);
#134=PLANE('',#161);
#135=PLANE('',#162);
#136=PLANE('',#163);
#137=PLANE('',#164);
#138=ADVANCED_FACE('',(#122,#123),#132,.F.);
#139=ADVANCED_FACE('',(#124,#125),#133,.T.);
#140=ADVANCED_FACE('',(#126),#134,.F.);
#141=ADVANCED_FACE('',(#127),#135,.T.);
#142=ADVANCED_FACE('',(#128),#136,.T.);
#143=ADVANCED_FACE('',(#129),#137,.F.);
#144=ADVANCED_FACE('',(#130),#12,.F.);
#145=ADVANCED_FACE('',(#131),#13,.F.);
#146=CLOSED_SHELL('',(#138,#139,#140,#141,#142,#143,#144,#145));
#147=STYLED_ITEM('',(#148),#155);
#148=PRESENTATION_STYLE_ASSIGNMENT((#149));
#149=SURFACE_STYLE_USAGE(.BOTH.,#150);
#150=SURFACE_SIDE_STYLE('',(#151));
#151=SURFACE_STYLE_FILL_AREA(#152);
#152=FILL_AREA_STYLE('',(#153));
#153=FILL_AREA_STYLE_COLOUR('',#154);
#154=COLOUR_RGB('',0.647058823529412,0.647058823529412,0.647058823529412);
#155=MANIFOLD_SOLID_BREP('Part 1',#146);
#156=SHAPE_DEFINITION_REPRESENTATION(#324,#157);
#157=SHAPE_REPRESENTATION('Part 1',(#158),#319);
#158=AXIS2_PLACEMENT_3D('',#193,#165,#166);
#159=AXIS2_PLACEMENT_3D('',#194,#167,#168);
#160=AXIS2_PLACEMENT_3D('',#219,#173,#174);
#161=AXIS2_PLACEMENT_3D('',#244,#179,#180);
#162=AXIS2_PLACEMENT_3D('',#247,#183,#184);
#163=AXIS2_PLACEMENT_3D('',#250,#187,#188);
#164=AXIS2_PLACEMENT_3D('',#251,#189,#190);
#165=DIRECTION('',(0.,0.,1.));
#166=DIRECTION('',(1.,0.,0.));
#167=DIRECTION('',(0.,1.,5.55111512312578E-17));
#168=DIRECTION('',(0.,-5.55111512312578E-17,1.));
#169=DIRECTION('',(0.,5.55111512312578E-17,-1.));
#170=DIRECTION('',(-1.,0.,0.));
#171=DIRECTION('',(0.,5.55111512312578E-17,-1.));
#172=DIRECTION('',(-1.,0.,0.));
#173=DIRECTION('',(0.,1.,6.12323399573677E-17));
#174=DIRECTION('',(0.,-6.12323399573677E-17,1.));
#175=DIRECTION('',(0.,6.12323399573677E-17,-1.));
#176=DIRECTION('',(-1.,0.,0.));
#177=DIRECTION('',(0.,6.12323399573677E-17,-1.));
#178=DIRECTION('',(-1.,0.,0.));
#179=DIRECTION('',(0.,0.,-1.));
#180=DIRECTION('',(-1.,0.,0.));
#181=DIRECTION('',(0.,-1.,0.));
#182=DIRECTION('',(0.,-1.,0.));
#183=DIRECTION('',(0.,0.,-1.));
#184=DIRECTION('',(-1.,0.,0.));
#185=DIRECTION('',(0.,-1.,0.));
#186=DIRECTION('',(0.,-1.,0.));
#187=DIRECTION('',(1.,0.,0.));
#188=DIRECTION('',(0.,1.,0.));
#189=DIRECTION('',(1.,0.,0.));
#190=DIRECTION('',(0.,1.,0.));
#191=DIRECTION('',(0.,-1.,0.));
#192=DIRECTION('',(0.,-1.,0.));
#193=CARTESIAN_POINT('',(0.,0.,0.));
#194=CARTESIAN_POINT('',(2.5,-0.1,0.));
#195=CARTESIAN_POINT('',(-0.5,-0.1,0.));
#196=CARTESIAN_POINT('',(-0.5,-0.1,0.5));
#197=CARTESIAN_POINT('',(-0.5,-0.1,-0.5));
#198=CARTESIAN_POINT('',(2.5,-0.1,-0.5));
#199=CARTESIAN_POINT('',(2.5,-0.1,-0.5));
#200=CARTESIAN_POINT('',(2.5,-0.1,0.));
#201=CARTESIAN_POINT('',(2.5,-0.1,0.5));
#202=CARTESIAN_POINT('',(2.5,-0.1,0.5));
#203=CARTESIAN_POINT('',(2.22044604925032E-16,-0.1,0.));
#204=CARTESIAN_POINT('',(2.22044604925032E-16,-0.1,-0.0227782317884053));
#205=CARTESIAN_POINT('',(0.0797819177591515,-0.1,-0.0369293309084337));
#206=CARTESIAN_POINT('',(0.223233758445492,-0.1,0.0073427730751811));
#207=CARTESIAN_POINT('',(0.414243527227056,-0.1,0.0444064549564461));
#208=CARTESIAN_POINT('',(0.640132372894662,-0.1,0.076883337476325));
#209=CARTESIAN_POINT('',(1.,-0.1,0.));
#210=CARTESIAN_POINT('',(2.22044604925032E-16,-0.1,0.));
#211=CARTESIAN_POINT('',(1.,-0.1,1.38777878078145E-17));
#212=CARTESIAN_POINT('',(1.,-0.1,1.23693584918215E-17));
#213=CARTESIAN_POINT('',(0.663194444444445,-0.1,0.171330861277344));
#214=CARTESIAN_POINT('',(0.420138888888889,-0.1,0.180029593495402));
#215=CARTESIAN_POINT('',(0.227256944444444,-0.1,0.140338196039816));
#216=CARTESIAN_POINT('',(0.0814814814814817,-0.1,0.110030221225143));
#217=CARTESIAN_POINT('',(2.22044604925032E-16,-0.1,0.0322881324231292));
#218=CARTESIAN_POINT('',(2.22044604925032E-16,-0.1,0.));
#219=CARTESIAN_POINT('',(2.5,-2.81948582117894E-17,-0.25));
#220=CARTESIAN_POINT('',(2.22044604925032E-16,0.,0.));
#221=CARTESIAN_POINT('',(2.22044604925032E-16,0.,-0.0227782317884053));
#222=CARTESIAN_POINT('',(0.0797819177591515,0.,-0.0369293309084337));
#223=CARTESIAN_POINT('',(0.223233758445492,0.,0.0073427730751811));
#224=CARTESIAN_POINT('',(0.414243527227056,0.,0.0444064549564461));
#225=CARTESIAN_POINT('',(0.640132372894662,0.,0.076883337476325));
#226=CARTESIAN_POINT('',(1.,0.,0.));
#227=CARTESIAN_POINT('',(0.,-4.35029432011313E-17,0.));
#228=CARTESIAN_POINT('',(1.,0.,5.51664354163678E-18));
#229=CARTESIAN_POINT('',(1.,0.,1.23693584918215E-17));
#230=CARTESIAN_POINT('',(0.663194444444445,0.,0.171330861277344));
#231=CARTESIAN_POINT('',(0.420138888888889,0.,0.180029593495402));
#232=CARTESIAN_POINT('',(0.227256944444444,0.,0.140338196039816));
#233=CARTESIAN_POINT('',(0.0814814814814817,0.,0.110030221225143));
#234=CARTESIAN_POINT('',(2.22044604925032E-16,0.,0.0322881324231292));
#235=CARTESIAN_POINT('',(2.22044604925032E-16,0.,0.));
#236=CARTESIAN_POINT('',(-0.5,-2.81948582117894E-17,-0.25));
#237=CARTESIAN_POINT('',(-0.5,-7.63278329429795E-17,0.5));
#238=CARTESIAN_POINT('',(-0.5,-1.38777878078145E-17,-0.5));
#239=CARTESIAN_POINT('',(2.5,-7.63278329429795E-17,0.5));
#240=CARTESIAN_POINT('',(2.5,-7.63278329429795E-17,0.5));
#241=CARTESIAN_POINT('',(2.5,-2.81948582117894E-17,-0.25));
#242=CARTESIAN_POINT('',(2.5,-1.38777878078145E-17,-0.5));
#243=CARTESIAN_POINT('',(2.5,-1.38777878078145E-17,-0.5));
#244=CARTESIAN_POINT('',(2.5,-0.05,0.5));
#245=CARTESIAN_POINT('',(-0.5,-0.05,0.5));
#246=CARTESIAN_POINT('',(2.5,-0.05,0.5));
#247=CARTESIAN_POINT('',(2.5,-0.05,-0.5));
#248=CARTESIAN_POINT('',(-0.5,-0.05,-0.5));
#249=CARTESIAN_POINT('',(2.5,-0.05,-0.5));
#250=CARTESIAN_POINT('',(2.5,-0.05,0.));
#251=CARTESIAN_POINT('',(-0.5,-0.05,0.));
#252=CARTESIAN_POINT('',(2.22046042266129E-16,5.17116836774187E-18,4.33115918400776E-22));
#253=CARTESIAN_POINT('',(2.22046042266129E-16,-0.1,4.33115918400776E-22));
#254=CARTESIAN_POINT('',(2.27302515037377E-16,1.91899428558435E-16,-0.00573788572716559));
#255=CARTESIAN_POINT('',(2.27302515037377E-16,-0.0999999999999998,-0.00573788572716559));
#256=CARTESIAN_POINT('',(0.00934809966044154,-4.32690784707288E-17,-0.0130116444135382));
#257=CARTESIAN_POINT('',(0.00934809966044154,-0.1,-0.0130116444135382));
#258=CARTESIAN_POINT('',(0.0386314569370458,8.14865459840309E-18,-0.0169222290439897));
#259=CARTESIAN_POINT('',(0.0386314569370458,-0.1,-0.0169222290439897));
#260=CARTESIAN_POINT('',(0.068551361357358,-2.17997319016654E-18,-0.0167896603864041));
#261=CARTESIAN_POINT('',(0.068551361357358,-0.1,-0.0167896603864041));
#262=CARTESIAN_POINT('',(0.10600077125514,5.71238162263084E-19,-0.0136768394401056));
#263=CARTESIAN_POINT('',(0.10600077125514,-0.1,-0.0136768394401056));
#264=CARTESIAN_POINT('',(0.165472419165821,-3.30385332602086E-19,-0.0060390428477665));
#265=CARTESIAN_POINT('',(0.165472419165821,-0.1,-0.0060390428477665));
#266=CARTESIAN_POINT('',(0.256864946789021,1.17277182103349E-19,0.0087395509881353));
#267=CARTESIAN_POINT('',(0.256864946789021,-0.1,0.0087395509881353));
#268=CARTESIAN_POINT('',(0.36985860617578,-2.14462137079611E-20,0.025417495848308));
#269=CARTESIAN_POINT('',(0.36985860617578,-0.1,0.025417495848308));
#270=CARTESIAN_POINT('',(0.473935650447491,1.51477482536602E-20,0.0358060074677595));
#271=CARTESIAN_POINT('',(0.473935650447491,-0.1,0.0358060074677595));
#272=CARTESIAN_POINT('',(0.559404997979357,-4.82932697970851E-20,0.0408760139108118));
#273=CARTESIAN_POINT('',(0.559404997979357,-0.1,0.0408760139108118));
#274=CARTESIAN_POINT('',(0.653096223434899,1.7802533093468E-19,0.0418316045086198));
#275=CARTESIAN_POINT('',(0.653096223434899,-0.1,0.0418316045086198));
#276=CARTESIAN_POINT('',(0.756188765957855,-6.63808053941635E-19,0.0370403887981889));
#277=CARTESIAN_POINT('',(0.756188765957855,-0.1,0.0370403887981889));
#278=CARTESIAN_POINT('',(0.870265000110428,2.47720688483186E-18,0.0245753142454686));
#279=CARTESIAN_POINT('',(0.870265000110428,-0.1,0.0245753142454686));
#280=CARTESIAN_POINT('',(0.955019999081628,-5.33761069531325E-18,0.00960967958721198));
#281=CARTESIAN_POINT('',(0.955019999081628,-0.1,0.00960967958721198));
#282=CARTESIAN_POINT('',(1.,-7.59583060486886E-18,1.73472347597681E-18));
#283=CARTESIAN_POINT('',(1.,-0.1,1.73472347597681E-18));
#284=CARTESIAN_POINT('',(1.,0.,0.));
#285=CARTESIAN_POINT('',(2.22044604925032E-16,0.,0.));
#286=CARTESIAN_POINT('',(1.,1.73929414193402E-18,-5.46883858043804E-17));
#287=CARTESIAN_POINT('',(1.,-0.1,-5.46883858043804E-17));
#288=CARTESIAN_POINT('',(0.915823982889322,8.28015557934845E-18,0.0428198088558254));
#289=CARTESIAN_POINT('',(0.915823982889322,-0.1,0.0428198088558254));
#290=CARTESIAN_POINT('',(0.800397035137087,-1.86699156730939E-18,0.0881540297091848));
#291=CARTESIAN_POINT('',(0.800397035137087,-0.1,0.0881540297091848));
#292=CARTESIAN_POINT('',(0.664163062966116,3.51600752399493E-19,0.122686185152486));
#293=CARTESIAN_POINT('',(0.664163062966116,-0.1,0.122686185152486));
#294=CARTESIAN_POINT('',(0.570070092901046,-9.40595222158059E-20,0.138058289559944));
#295=CARTESIAN_POINT('',(0.570070092901046,-0.1,0.138058289559944));
#296=CARTESIAN_POINT('',(0.483474045898402,2.46373364637301E-20,0.145033162393575));
#297=CARTESIAN_POINT('',(0.483474045898402,-0.1,0.145033162393575));
#298=CARTESIAN_POINT('',(0.403960620713188,-4.48982363911472E-21,0.145362518988374));
#299=CARTESIAN_POINT('',(0.403960620713188,-0.1,0.145362518988374));
#300=CARTESIAN_POINT('',(0.331265517757571,-6.67804190727126E-21,0.140469304967849));
#301=CARTESIAN_POINT('',(0.331265517757571,-0.1,0.140469304967849));
#302=CARTESIAN_POINT('',(0.24327290419933,4.38286689933568E-20,0.128460591513194));
#303=CARTESIAN_POINT('',(0.24327290419933,-0.1,0.128460591513194));
#304=CARTESIAN_POINT('',(0.149984502584673,-3.61067811403855E-19,0.105424191496821));
#305=CARTESIAN_POINT('',(0.149984502584673,-0.1,0.105424191496821));
#306=CARTESIAN_POINT('',(0.0800174921603667,1.03937476521821E-18,0.0757867863601924));
#307=CARTESIAN_POINT('',(0.0800174921603667,-0.1,0.0757867863601924));
#308=CARTESIAN_POINT('',(0.0393810374225032,-1.798661015112E-18,0.0504579738507926));
#309=CARTESIAN_POINT('',(0.0393810374225032,-0.1,0.0504579738507926));
#310=CARTESIAN_POINT('',(0.0170033699472899,6.86477824031235E-18,0.0315334963980688));
#311=CARTESIAN_POINT('',(0.0170033699472899,-0.1,0.0315334963980688));
#312=CARTESIAN_POINT('',(0.00318274820985327,-2.56604519461374E-17,0.0138600655384941));
#313=CARTESIAN_POINT('',(0.00318274820985327,-0.1,0.0138600655384941));
#314=CARTESIAN_POINT('',(-9.51403029407556E-16,5.52978690474457E-17,0.00403985285760972));
#315=CARTESIAN_POINT('',(-9.51403029407556E-16,-0.1,0.00403985285760972));
#316=CARTESIAN_POINT('',(2.22042220343365E-16,7.22559289085291E-18,-4.47811291494513E-15));
#317=CARTESIAN_POINT('',(2.22042220343365E-16,-0.1,-4.47811291494513E-15));
#318=MECHANICAL_DESIGN_GEOMETRIC_PRESENTATION_REPRESENTATION('',(#147),
#319);
#319=(
GEOMETRIC_REPRESENTATION_CONTEXT(3)
GLOBAL_UNCERTAINTY_ASSIGNED_CONTEXT((#320))
GLOBAL_UNIT_ASSIGNED_CONTEXT((#323,#322,#321))
REPRESENTATION_CONTEXT('Part 1','TOP_LEVEL_ASSEMBLY_PART')
);
#320=UNCERTAINTY_MEASURE_WITH_UNIT(LENGTH_MEASURE(3.00000266666551E-5),
#323,'DISTANCE_ACCURACY_VALUE','Maximum Tolerance applied to model');
#321=(
NAMED_UNIT(*)
SI_UNIT($,.STERADIAN.)
SOLID_ANGLE_UNIT()
);
#322=(
NAMED_UNIT(*)
PLANE_ANGLE_UNIT()
SI_UNIT($,.RADIAN.)
);
#323=(
LENGTH_UNIT()
NAMED_UNIT(*)
SI_UNIT($,.METRE.)
);
#324=PRODUCT_DEFINITION_SHAPE('','',#325);
#325=PRODUCT_DEFINITION('','',#327,#326);
#326=PRODUCT_DEFINITION_CONTEXT('',#333,'design');
#327=PRODUCT_DEFINITION_FORMATION_WITH_SPECIFIED_SOURCE('','',#329,
 .NOT_KNOWN.);
#328=PRODUCT_RELATED_PRODUCT_CATEGORY('','',(#329));
#329=PRODUCT('Part 1','Part 1','Part 1',(#331));
#330=PRODUCT_CATEGORY('','');
#331=PRODUCT_CONTEXT('',#333,'mechanical');
#332=APPLICATION_PROTOCOL_DEFINITION('international standard',
'ap242_managed_model_based_3d_engineering',2020,#333);
#333=APPLICATION_CONTEXT('managed model based 3d engineering');
ENDSEC;
END-ISO-10303-21;
